<svg width="14" height="14" viewBox="0 0 14 14" fill="none" xmlns="http://www.w3.org/2000/svg">
<circle cx="7" cy="7" r="7" fill="#1DC9B7"/>
<circle cx="7" cy="7" r="7" fill="#EE5555"/>
<path d="M10.2866 3.71329C10.0022 3.4289 9.54105 3.4289 9.25714 3.71329L7 5.97062L4.74286 3.71329C4.45846 3.4289 3.99779 3.4289 3.7134 3.71329C3.429 3.99767 3.429 4.45832 3.7134 4.74271L5.97054 6.99994L3.7133 9.25727C3.4289 9.54165 3.4289 10.0023 3.7133 10.2867C3.85545 10.4288 4.04176 10.5 4.22808 10.5C4.41439 10.5 4.60091 10.4289 4.74286 10.2867L7 8.02945L9.25714 10.2867C9.39929 10.4288 9.58561 10.5 9.77192 10.5C9.95824 10.5 10.1445 10.4289 10.2867 10.2867C10.5711 10.0023 10.5711 9.54165 10.2867 9.25727L8.02947 7.00004L10.2866 4.7428C10.571 4.45842 10.571 3.99767 10.2866 3.71329Z" fill="#EE5555"/>
<path d="M10.2866 3.71329C10.0022 3.4289 9.54105 3.4289 9.25714 3.71329L7 5.97062L4.74286 3.71329C4.45846 3.4289 3.99779 3.4289 3.7134 3.71329C3.429 3.99767 3.429 4.45832 3.7134 4.74271L5.97054 6.99994L3.7133 9.25727C3.4289 9.54165 3.4289 10.0023 3.7133 10.2867C3.85545 10.4288 4.04176 10.5 4.22808 10.5C4.41439 10.5 4.60091 10.4289 4.74286 10.2867L7 8.02945L9.25714 10.2867C9.39929 10.4288 9.58561 10.5 9.77192 10.5C9.95824 10.5 10.1445 10.4289 10.2867 10.2867C10.5711 10.0023 10.5711 9.54165 10.2867 9.25727L8.02947 7.00004L10.2866 4.7428C10.571 4.45842 10.571 3.99767 10.2866 3.71329Z" fill="white"/>
</svg>
