<svg width="13" height="17" viewBox="0 0 13 17" fill="none" xmlns="http://www.w3.org/2000/svg">
<path d="M8.70266 3.78223H1.26477C0.566853 3.78223 0 4.34908 0 5.047V15.7189C0 16.4168 0.566853 16.9837 1.26477 16.9837H8.70266C9.40058 16.9837 9.96743 16.4168 9.96743 15.7189V5.047C9.96416 4.34908 9.3973 3.78223 8.70266 3.78223ZM9.07947 15.7156C9.07947 15.9253 8.90909 16.0957 8.69939 16.0957H1.26149C1.05179 16.0957 0.881407 15.9253 0.881407 15.7156V5.047C0.881407 4.83729 1.05179 4.66691 1.26149 4.66691H8.69939C8.90909 4.66691 9.07947 4.83729 9.07947 5.047V15.7156Z" fill="#6B7888"/>
<path d="M11.5465 0.984375H4.10864C3.41073 0.984375 2.84387 1.55123 2.84387 2.24915C2.84387 2.49489 3.04047 2.69149 3.28621 2.69149C3.53196 2.69149 3.72856 2.49489 3.72856 2.24915C3.72856 2.03944 3.89894 1.86906 4.10864 1.86906H11.5465C11.7563 1.86906 11.9266 2.03944 11.9266 2.24915V12.9211C11.9266 13.1308 11.7563 13.3011 11.5465 13.3011C11.3008 13.3011 11.1042 13.4977 11.1042 13.7435C11.1042 13.9892 11.3008 14.1858 11.5465 14.1858C12.2445 14.1858 12.8113 13.619 12.8113 12.9211V2.24915C12.8113 1.55123 12.2445 0.984375 11.5465 0.984375Z" fill="#6B7888"/>
</svg>
