<svg width="18" height="14" viewBox="0 0 18 14" fill="none" xmlns="http://www.w3.org/2000/svg">
<path d="M17.6036 13.2426H15.2061V3.59728L16.1429 2.71151L16.1429 4.08845C16.1429 4.2976 16.3204 4.46715 16.5393 4.46715C16.7582 4.46715 16.9357 4.2976 16.9357 4.08845L16.9357 1.7581C16.9357 1.54895 16.7582 1.37939 16.5393 1.37939H14.1001C13.8812 1.37939 13.7037 1.54895 13.7037 1.7581C13.7037 1.96726 13.8812 2.13681 14.1001 2.13681H15.6237L9.71202 7.72652L6.90868 5.02905C6.83427 4.95742 6.73302 4.91713 6.62739 4.91713C6.62735 4.91713 6.62731 4.91713 6.62727 4.91713C6.52161 4.91717 6.42035 4.95749 6.34594 5.02919L1.00192 10.177C0.847777 10.3255 0.848796 10.5653 1.00422 10.7126C1.08154 10.7858 1.18245 10.8224 1.28337 10.8224C1.38534 10.8224 1.48731 10.785 1.56482 10.7104L2.04001 10.2526V13.2426H0.792808V0.378707C0.792808 0.169552 0.615333 0 0.396404 0C0.177476 0 0 0.169552 0 0.378707V13.6213C0 13.8304 0.177476 14 0.396404 14H17.6036C17.8225 14 18 13.8304 18 13.6213C18 13.4121 17.8225 13.2426 17.6036 13.2426ZM14.4133 13.2426H10.106V8.41963L14.4133 4.34694V13.2426ZM7.02375 6.21476L9.31316 8.41768V13.2425H7.02375V6.21476ZM2.83282 9.48884L6.23095 6.21545V13.2425H2.83282V9.48884Z" fill="#1194F3"/>
</svg>
