<svg width="19" height="19" viewBox="0 0 19 19" fill="none" xmlns="http://www.w3.org/2000/svg">
<path d="M18.0275 7.50549L16.6939 7.27925C16.5549 6.83075 16.3763 6.39812 16.158 5.98534L16.9439 4.88591C17.2773 4.41756 17.2257 3.77854 16.8169 3.3737L15.6341 2.19092C15.4119 1.96865 15.1181 1.84561 14.8046 1.84561C14.5585 1.84561 14.3243 1.92102 14.1259 2.06391L13.0225 2.84978C12.5938 2.62355 12.1453 2.437 11.6809 2.29808L11.4587 0.980358C11.3634 0.412782 10.8752 0 10.2997 0H8.62873C8.05322 0 7.56503 0.412782 7.46977 0.980358L7.23956 2.32984C6.79503 2.46875 6.3624 2.65133 5.94962 2.8736L4.85813 2.08772C4.65968 1.94484 4.42153 1.86943 4.17545 1.86943C3.86189 1.86943 3.56422 1.99247 3.34592 2.21473L2.15917 3.39751C1.75432 3.80236 1.69876 4.44138 2.03216 4.90973L2.82597 6.02503C2.60767 6.44178 2.43303 6.87441 2.29809 7.32291L0.980358 7.54518C0.412782 7.64044 0 8.12863 0 8.70415V10.3751C0 10.9506 0.412782 11.4388 0.980358 11.5341L2.32984 11.7643C2.46875 12.2088 2.65133 12.6415 2.8736 13.0542L2.09169 14.1418C1.75829 14.6101 1.80989 15.2491 2.2187 15.654L3.40148 16.8367C3.62375 17.059 3.91746 17.1821 4.23102 17.1821C4.4771 17.1821 4.71127 17.1066 4.90973 16.9638L6.02503 16.1699C6.42591 16.3803 6.84663 16.551 7.27925 16.6859L7.50152 18.0195C7.59678 18.5871 8.08497 18.9999 8.66049 18.9999H10.3354C10.9109 18.9999 11.3991 18.5871 11.4944 18.0195L11.7206 16.6859C12.1691 16.547 12.6018 16.3684 13.0145 16.1501L14.114 16.936C14.3124 17.0789 14.5506 17.1543 14.7967 17.1543C15.1102 17.1543 15.4039 17.0312 15.6262 16.809L16.809 15.6262C17.2138 15.2213 17.2694 14.5823 16.936 14.114L16.1501 13.0106C16.3684 12.5938 16.551 12.1612 16.6859 11.7167L18.0195 11.4944C18.5871 11.3991 18.9999 10.9109 18.9999 10.3354V8.66445C19.0078 8.08894 18.595 7.60075 18.0275 7.50549ZM17.9362 10.3354C17.9362 10.387 17.9005 10.4307 17.8489 10.4386L16.1819 10.7165C15.9715 10.7522 15.8048 10.907 15.7532 11.1094C15.6024 11.6928 15.3722 12.2525 15.0626 12.7724C14.9554 12.955 14.9634 13.1812 15.0864 13.3559L16.0668 14.7371C16.0945 14.7768 16.0906 14.8363 16.0548 14.8721L14.8721 16.0548C14.8443 16.0826 14.8165 16.0866 14.7967 16.0866C14.7728 16.0866 14.753 16.0787 14.7371 16.0667L13.3599 15.0864C13.1892 14.9634 12.959 14.9554 12.7764 15.0626C12.2565 15.3722 11.6968 15.6024 11.1134 15.7532C10.907 15.8048 10.7522 15.9755 10.7204 16.1819L10.4386 17.8489C10.4307 17.9005 10.387 17.9362 10.3354 17.9362H8.66446C8.61286 17.9362 8.5692 17.9005 8.56126 17.8489L8.28343 16.1819C8.2477 15.9715 8.09291 15.8048 7.89049 15.7532C7.32291 15.6063 6.77518 15.3801 6.26318 15.0864C6.17983 15.0388 6.08457 15.0149 5.99328 15.0149C5.88611 15.0149 5.77498 15.0467 5.68369 15.1142L4.29452 16.1025C4.27468 16.1144 4.25483 16.1223 4.23499 16.1223C4.21911 16.1223 4.18736 16.1183 4.15957 16.0906L2.97679 14.9078C2.94107 14.8721 2.9371 14.8165 2.96489 14.7728L3.94128 13.4035C4.06432 13.2289 4.07225 12.9987 3.96509 12.8161C3.6555 12.3001 3.41736 11.7405 3.26654 11.157C3.21097 10.9546 3.04427 10.7998 2.83788 10.7641L1.15897 10.4783C1.10737 10.4704 1.07165 10.4267 1.07165 10.3751V8.70415C1.07165 8.65255 1.10737 8.60889 1.15897 8.60095L2.81406 8.32312C3.02442 8.28739 3.19509 8.1326 3.24669 7.92621C3.39355 7.34276 3.61978 6.77915 3.9254 6.25921C4.03256 6.07663 4.02066 5.85039 3.89762 5.67972L2.90932 4.29055C2.88154 4.25086 2.88551 4.19133 2.92123 4.1556L4.10401 2.97283C4.13179 2.94504 4.15957 2.94107 4.17942 2.94107C4.20323 2.94107 4.22308 2.94901 4.23896 2.96092L5.60828 3.93731C5.78292 4.06035 6.01312 4.06829 6.1957 3.96112C6.71168 3.65153 7.27132 3.41339 7.85477 3.26257C8.05719 3.207 8.21198 3.0403 8.24771 2.83391L8.53348 1.155C8.54142 1.1034 8.58508 1.06768 8.63667 1.06768H10.3076C10.3592 1.06768 10.4029 1.1034 10.4108 1.155L10.6887 2.81009C10.7244 3.02045 10.8792 3.19112 11.0856 3.24272C11.6849 3.39355 12.2565 3.62772 12.7883 3.94128C12.9709 4.04844 13.1971 4.0405 13.3718 3.91746L14.7411 2.93313C14.7609 2.92123 14.7808 2.91329 14.8006 2.91329C14.8165 2.91329 14.8482 2.91726 14.876 2.94504L16.0588 4.12782C16.0945 4.16354 16.0985 4.21911 16.0707 4.26277L15.0904 5.64003C14.9673 5.8107 14.9594 6.04091 15.0665 6.22348C15.3761 6.74343 15.6063 7.30307 15.7572 7.88652C15.8088 8.09291 15.9794 8.2477 16.1858 8.27946L17.8528 8.56126C17.9044 8.5692 17.9401 8.61286 17.9401 8.66445V10.3354H17.9362Z" fill="#1194F3"/>
<path d="M9.50254 5.397C7.24018 5.397 5.40251 7.23468 5.40251 9.49704C5.40251 11.7594 7.24018 13.5971 9.50254 13.5971C11.7649 13.5971 13.6026 11.7594 13.6026 9.49704C13.6026 7.23468 11.7649 5.397 9.50254 5.397ZM9.50254 12.5254C7.83157 12.5254 6.47415 11.168 6.47415 9.49704C6.47415 7.82607 7.83157 6.46865 9.50254 6.46865C11.1735 6.46865 12.5309 7.82607 12.5309 9.49704C12.5309 11.168 11.1735 12.5254 9.50254 12.5254Z" fill="#1194F3"/>
</svg>
