<svg width="12" height="16" viewBox="0 0 12 16" fill="none" xmlns="http://www.w3.org/2000/svg">
<path d="M5.854 6.147C5.659 5.952 5.342 5.951 5.146 6.146L3.5 7.793L2.854 7.146C2.659 6.951 2.342 6.951 2.147 7.146C1.952 7.341 1.952 7.658 2.147 7.853L3.147 8.853C3.244 8.951 3.372 9 3.5 9C3.628 9 3.756 8.951 3.854 8.854L5.854 6.854C6.049 6.659 6.049 6.342 5.854 6.147Z" fill="#089CFF"/>
<path d="M5.854 10.147C5.659 9.952 5.342 9.951 5.146 10.146L3.5 11.793L2.854 11.147C2.659 10.952 2.342 10.952 2.147 11.147C1.952 11.342 1.952 11.659 2.147 11.854L3.147 12.854C3.244 12.951 3.372 13 3.5 13C3.628 13 3.756 12.951 3.854 12.854L5.854 10.854C6.049 10.659 6.049 10.342 5.854 10.147Z" fill="#089CFF"/>
<path d="M9.5 7H7.5C7.224 7 7 7.224 7 7.5C7 7.776 7.224 8 7.5 8H9.5C9.776 8 10 7.776 10 7.5C10 7.224 9.776 7 9.5 7Z" fill="#089CFF"/>
<path d="M9.5 11H7.5C7.224 11 7 11.224 7 11.5C7 11.776 7.224 12 7.5 12H9.5C9.776 12 10 11.776 10 11.5C10 11.224 9.776 11 9.5 11Z" fill="#089CFF"/>
<path d="M11 2H9V1.5C9 1.224 8.776 1 8.5 1H7.415C7.208 0.418 6.652 0 6 0C5.348 0 4.792 0.418 4.585 1H3.5C3.224 1 3 1.224 3 1.5V2H1C0.449 2 0 2.449 0 3V15C0 15.551 0.449 16 1 16H11C11.551 16 12 15.551 12 15V3C12 2.449 11.551 2 11 2ZM4 2H5C5.276 2 5.5 1.776 5.5 1.5C5.5 1.224 5.724 1 6 1C6.276 1 6.5 1.224 6.5 1.5C6.5 1.776 6.724 2 7 2H8V3H4V2ZM11 15H1V3H3V3.5C3 3.776 3.224 4 3.5 4H8.5C8.776 4 9 3.776 9 3.5V3H11V15Z" fill="#089CFF"/>
</svg>
