<svg width="18" height="18" viewBox="0 0 18 18" fill="none" xmlns="http://www.w3.org/2000/svg">
<path d="M18 9C18 13.9747 13.9741 18 9 18C4.02525 18 0 13.9741 0 9C0 4.02525 4.02594 0 9 0C13.9747 0 18 4.02594 18 9ZM16.5938 9C16.5938 4.80254 13.1969 1.40625 9 1.40625C4.80254 1.40625 1.40625 4.80309 1.40625 9C1.40625 13.1975 4.80309 16.5938 9 16.5938C13.1975 16.5938 16.5938 13.1969 16.5938 9Z" fill="#089CFF"/>
<path d="M13.6675 5.97489C13.9897 6.30518 13.9897 6.84059 13.6675 7.17072L8.13357 12.8433C7.81135 13.1735 7.28918 13.1735 6.96696 12.8433L4.33261 10.1429C4.01039 9.81273 4.01039 9.27733 4.33261 8.9472C4.65467 8.61691 5.177 8.61691 5.49906 8.9472L7.55018 11.0497L12.5008 5.97489C12.8231 5.64476 13.3454 5.64476 13.6675 5.97489Z" fill="#089CFF"/>
</svg>
