<svg width="16" height="16" viewBox="0 0 16 16" fill="none" xmlns="http://www.w3.org/2000/svg">
<path d="M12.8431 3.27959H12.4319V2.36435C12.4319 1.06114 11.3708 0 10.0676 0H5.10342C3.80021 0 2.73907 1.06114 2.73907 2.36435V3.27959H2.36435C1.06114 3.27959 0 4.34073 0 5.64394V9.45741C0 10.7606 1.06114 11.8218 2.36435 11.8218H2.73575V14.8195C2.73575 15.4694 3.26632 16 3.91627 16H11.2481C11.898 16 12.4286 15.4694 12.4286 14.8195V11.8218H12.8431C14.1463 11.8218 15.2075 10.7606 15.2075 9.45741V5.64394C15.2075 4.34073 14.1463 3.27959 12.8431 3.27959ZM3.63109 2.36435C3.63109 1.55523 4.29098 0.895337 5.1001 0.895337H10.0609C10.8701 0.895337 11.5299 1.55523 11.5299 2.36435V3.27959H3.63109V2.36435V2.36435ZM11.5333 14.8261C11.5333 14.982 11.4039 15.1113 11.2481 15.1113H3.91627C3.76041 15.1113 3.63109 14.982 3.63109 14.8261V9.88187H11.5333V14.8261ZM14.3121 9.46073C14.3121 10.2698 13.6522 10.9297 12.8431 10.9297H12.4319V9.88187H13.0222C13.2709 9.88187 13.4698 9.6829 13.4698 9.4342C13.4698 9.18549 13.2709 8.98653 13.0222 8.98653H2.07917C1.83047 8.98653 1.6315 9.18549 1.6315 9.4342C1.6315 9.6829 1.83047 9.88187 2.07917 9.88187H2.73907V10.9297H2.36435C1.55523 10.9297 0.895337 10.2698 0.895337 9.46073V5.64725C0.895337 4.83814 1.55523 4.17824 2.36435 4.17824H12.8431C13.6522 4.17824 14.3121 4.83814 14.3121 5.64725V9.46073V9.46073Z" fill="#6B7888"/>
<path d="M4.71586 12.0848H10.4162C10.6649 12.0848 10.8638 11.8858 10.8638 11.6371C10.8638 11.3884 10.6649 11.1895 10.4162 11.1895H4.71586C4.46715 11.1895 4.26819 11.3884 4.26819 11.6371C4.26819 11.8858 4.47047 12.0848 4.71586 12.0848Z" fill="#6B7888"/>
<path d="M10.4522 13.0186H4.74857C4.49987 13.0186 4.3009 13.2175 4.3009 13.4662C4.3009 13.7149 4.49987 13.9139 4.74857 13.9139H10.4489C10.6976 13.9139 10.8965 13.7149 10.8965 13.4662C10.8965 13.2175 10.6976 13.0186 10.4522 13.0186Z" fill="#6B7888"/>
<path d="M12.8334 5.03711H11.9248C11.6761 5.03711 11.4772 5.23607 11.4772 5.48478C11.4772 5.73348 11.6761 5.93245 11.9248 5.93245H12.8334C13.0822 5.93245 13.2811 5.73348 13.2811 5.48478C13.2811 5.23607 13.0822 5.03711 12.8334 5.03711Z" fill="#6B7888"/>
</svg>
