<svg width="13" height="13" viewBox="0 0 13 13" fill="none" xmlns="http://www.w3.org/2000/svg">
<path d="M12.5382 1.79332C12.2589 1.76785 12.0118 1.97364 11.9864 2.25294L11.9191 2.99102C10.7775 1.19829 8.79594 0 6.49989 0C4.02986 0 1.85309 1.40974 0.772508 3.5256C0.644945 3.77537 0.74402 4.08125 0.993788 4.20881C1.24361 4.33638 1.54944 4.23733 1.677 3.98753C2.5915 2.19688 4.42793 1.01563 6.49989 1.01563C8.38837 1.01563 10.0926 1.99904 11.069 3.53967L10.345 3.02253C10.1167 2.85955 9.79956 2.91241 9.63658 3.14063C9.4736 3.36886 9.52646 3.68599 9.75467 3.849L11.9503 5.41716C12.2721 5.64656 12.716 5.43655 12.7512 5.05003L12.9977 2.34516C13.0232 2.06584 12.8175 1.81879 12.5382 1.79332Z" fill="#6B7888"/>
<path d="M12.0061 8.79118C11.7563 8.66364 11.4504 8.76269 11.3229 9.01246C10.4084 10.8031 8.57195 11.9844 6.49999 11.9844C4.61151 11.9844 2.90723 11.001 1.93086 9.46033L2.65493 9.97746C2.88316 10.1404 3.20029 10.0876 3.3633 9.85937C3.52628 9.63113 3.47342 9.314 3.24521 9.15099L1.04955 7.58283C0.731682 7.35574 0.284247 7.55945 0.2487 7.94996L0.00213048 10.6548C-0.0233364 10.9341 0.182455 11.1812 0.461728 11.2067C0.741381 11.2321 0.988102 11.0261 1.01354 10.747L1.08083 10.0089C2.22234 11.8017 4.20394 13 6.49999 13C8.97002 13 11.1468 11.5903 12.2274 9.47439C12.3549 9.22462 12.2559 8.91874 12.0061 8.79118Z" fill="#6B7888"/>
</svg>
