<svg width="10" height="18" viewBox="0 0 10 18" fill="none" xmlns="http://www.w3.org/2000/svg">
<path d="M-0.000133514 9.03137C-0.000133514 9.23132 0.0599251 9.43127 0.169972 9.58124L5.16986 17.0812C5.34985 17.3513 5.64996 17.5313 5.99987 17.5313H8.99988C9.54993 17.5313 10 17.0812 10 16.5314C10 16.3312 9.93994 16.1313 9.82989 15.9813L5.19988 9.03137L9.82989 2.08124C9.93994 1.93127 10 1.73132 10 1.53137C10 0.981323 9.54993 0.53125 8.99988 0.53125H5.99987C5.64996 0.53125 5.34985 0.711243 5.16986 0.981323L0.169972 8.48132C0.0599251 8.63128 -0.000133514 8.83124 -0.000133514 9.03137Z" fill="#ABC3EB"/>
</svg>
