<svg width="10" height="8" viewBox="0 0 10 8" fill="none" xmlns="http://www.w3.org/2000/svg">
<path d="M0.0911522 1.12607C0.75664 2.31784 1.87236 4.00782 2.85686 5.49858C3.3724 6.27983 3.85926 7.0174 4.21123 7.57777C4.37725 7.84233 4.67225 8 5.00022 8C5.32818 8 5.62318 7.84233 5.7892 7.57777C6.14096 7.0174 6.62742 6.28054 7.14256 5.5C8.12725 4.00852 9.24297 2.31818 9.90885 1.12607C9.96928 1.01741 10 0.902709 10 0.785163C10 0.352278 9.59941 0 9.10686 0L5 0.000715733L0.893145 0C0.400586 0 0 0.352278 0 0.785163C0 0.902709 0.0307226 1.01741 0.0911522 1.12607Z" fill="#BEC5D2"/>
</svg>
