<svg width="13" height="14" viewBox="0 0 13 14" fill="none" xmlns="http://www.w3.org/2000/svg">
<path d="M1.97281 0.127613V0.127887C3.88461 1.05957 6.59563 2.62131 8.98706 3.9996C10.2403 4.72136 11.4235 5.40296 12.3224 5.89572C12.7468 6.12814 12.9998 6.54114 12.9998 7.0003C12.9998 7.45946 12.7468 7.87246 12.3224 8.10488C11.4235 8.59734 10.2415 9.27839 8.98933 9.99958C6.59675 11.3781 3.88515 12.9402 1.97281 13.8724C1.7985 13.957 1.6145 14 1.42594 14C0.731518 14 0.166405 13.4392 0.166405 12.7496L0.167553 7L0.166405 1.2504C0.166405 0.560821 0.731518 0 1.42594 0C1.6145 0 1.7985 0.0430117 1.97281 0.127613Z" fill="#B4BED7"/>
</svg>
