<svg width="14" height="14" viewBox="0 0 14 14" fill="none" xmlns="http://www.w3.org/2000/svg">
<path d="M7 0C3.1402 0 0 3.1402 0 7C0 10.8598 3.1402 14 7 14C10.8598 14 14 10.8598 14 7C14 3.1402 10.8597 0 7 0ZM7 12.8C3.80195 12.8 1.20001 10.198 1.20001 7C1.20001 3.80195 3.80195 1.20001 7 1.20001C10.198 1.20001 12.8 3.80195 12.8 7C12.8 10.198 10.198 12.8 7 12.8Z" fill="#6B7888"/>
<path d="M9.70856 4.29176C9.47418 4.05738 9.09413 4.05738 8.86016 4.29176L7 6.15216L5.13984 4.29176C4.90546 4.05738 4.52581 4.05738 4.29144 4.29176C4.05706 4.52614 4.05706 4.90578 4.29144 5.14016L6.15159 7.00048L4.29136 8.86088C4.05698 9.09526 4.05698 9.47491 4.29136 9.70928C4.40851 9.82643 4.56205 9.88509 4.7156 9.88509C4.86915 9.88509 5.02285 9.82651 5.13984 9.70928L7 7.84897L8.86016 9.70928C8.97731 9.82643 9.13085 9.88509 9.2844 9.88509C9.43795 9.88509 9.59141 9.82651 9.70864 9.70928C9.94302 9.47491 9.94302 9.09526 9.70864 8.86088L7.8484 7.00056L9.70856 5.14024C9.94294 4.90587 9.94294 4.52614 9.70856 4.29176Z" fill="#6B7888"/>
</svg>
