<svg width="16" height="16" viewBox="0 0 16 16" fill="none" xmlns="http://www.w3.org/2000/svg">
<path d="M14.8938 8.28354C14.6498 8.28354 14.4545 8.48963 14.4545 8.74724V12.9652C14.4545 14.1125 13.5694 15.0433 12.4858 15.0433H2.8473C1.76045 15.0433 0.878597 14.109 0.878597 12.9652V8.67855C0.878597 8.42093 0.683353 8.21484 0.439298 8.21484C0.195244 8.21484 0 8.42093 0 8.67855V12.9652C0 14.6243 1.27885 15.9707 2.8473 15.9707H12.4858C14.0575 15.9707 15.3331 14.6208 15.3331 12.9652V8.74724C15.3331 8.49307 15.1379 8.28354 14.8938 8.28354Z" fill="#6B7888"/>
<path d="M7.35745 12.2895C7.44205 12.3788 7.55594 12.4269 7.66658 12.4269C7.77722 12.4269 7.89111 12.3822 7.97572 12.2895L10.7677 9.3424C10.9402 9.16035 10.9402 8.86839 10.7677 8.68634C10.5952 8.5043 10.3186 8.5043 10.1462 8.68634L8.10588 10.8434V1.43538C8.10588 1.17777 7.91064 0.97168 7.66658 0.97168C7.42253 0.97168 7.22728 1.17777 7.22728 1.43538V10.8434L5.18374 8.68634C5.01127 8.5043 4.73468 8.5043 4.56221 8.68634C4.38975 8.86839 4.38975 9.16035 4.56221 9.3424L7.35745 12.2895Z" fill="#6B7888"/>
</svg>
