<svg width="15" height="15" viewBox="0 0 15 15" fill="none" xmlns="http://www.w3.org/2000/svg">
<path d="M14.6757 6.97589L12.2668 5.77151L14.6757 4.56702C15.1065 4.35164 15.107 3.73457 14.6757 3.51885L7.76156 0.0617984C7.59654 -0.0205995 7.40245 -0.0205995 7.23742 0.0617984L0.323326 3.51885C-0.107546 3.73434 -0.108004 4.35141 0.323326 4.56702L2.7322 5.77151L0.323326 6.97589C-0.107546 7.19139 -0.108004 7.80834 0.323326 8.02406L2.7322 9.22856L0.323326 10.4329C-0.107546 10.6484 -0.108004 11.2654 0.323326 11.4811L7.23742 14.9382C7.4021 15.0204 7.5962 15.0208 7.76156 14.9382L14.6757 11.4811C15.1065 11.2656 15.107 10.6487 14.6757 10.4329L12.2668 9.22856L14.6757 8.02406C15.1065 7.80868 15.107 7.19162 14.6757 6.97589ZM7.49949 1.241L13.1033 4.04299L7.49949 6.84486L1.89564 4.04299L7.49949 1.241ZM13.1033 10.9571L7.49949 13.759L1.89564 10.9571L4.04244 9.88362L7.23742 11.4811C7.40222 11.5634 7.5962 11.5637 7.76156 11.4811L10.9565 9.88362L13.1033 10.9571ZM7.49949 10.3019L1.89564 7.50004L4.04244 6.42657L7.23742 8.02406C7.40222 8.10635 7.5962 8.10669 7.76156 8.02406L10.9565 6.42657L13.1033 7.50004L7.49949 10.3019Z" fill="#089CFF"/>
</svg>
