<svg width="16" height="14" viewBox="0 0 16 14" fill="none" xmlns="http://www.w3.org/2000/svg">
<path d="M15.5342 1.86679C15.5332 1.86679 15.5322 1.86667 15.5312 1.86667H11.2812V1.4C11.2812 0.628056 10.6504 0 9.875 0H6.125C5.34961 0 4.71875 0.628056 4.71875 1.4V1.86667H0.46875C0.207764 1.86667 0 2.07958 0 2.33333V12.6C0 13.3719 0.630859 14 1.40625 14H14.5938C15.3691 14 16 13.3719 16 12.6V2.34318C16 2.34257 16 2.34196 16 2.34135C15.9821 2.03486 15.7927 1.86849 15.5342 1.86679ZM5.65625 1.4C5.65625 1.14273 5.86658 0.933333 6.125 0.933333H9.875C10.1334 0.933333 10.3438 1.14273 10.3438 1.4V1.86667H5.65625V1.4ZM14.8809 2.8L13.4252 7.14753C13.3613 7.33846 13.1826 7.46667 12.9806 7.46667H10.3438V7C10.3438 6.74224 10.1339 6.53333 9.875 6.53333H6.125C5.86609 6.53333 5.65625 6.74224 5.65625 7V7.46667H3.01941C2.81738 7.46667 2.63867 7.33846 2.57483 7.14753L1.11914 2.8H14.8809ZM9.40625 7.46667V8.4H6.59375V7.46667H9.40625ZM15.0625 12.6C15.0625 12.8573 14.8522 13.0667 14.5938 13.0667H1.40625C1.14783 13.0667 0.9375 12.8573 0.9375 12.6V5.20905L1.68542 7.44273C1.87708 8.01536 2.41321 8.4 3.01941 8.4H5.65625V8.86667C5.65625 9.12443 5.86609 9.33333 6.125 9.33333H9.875C10.1339 9.33333 10.3438 9.12443 10.3438 8.86667V8.4H12.9806C13.5868 8.4 14.1229 8.01536 14.3146 7.44273L15.0625 5.20905V12.6Z" fill="#089CFF"/>
</svg>
