<svg width="20" height="14" viewBox="0 0 20 14" fill="none" xmlns="http://www.w3.org/2000/svg">
<path d="M16.6 4.66667H10M16.6 6.66667H10M16.6 8.66667H10M5.5 7C6.32843 7 7 6.25381 7 5.33333C7 4.41286 6.32843 3.66667 5.5 3.66667C4.67157 3.66667 4 4.41286 4 5.33333C4 6.25381 4.67157 7 5.5 7ZM5.5 7C4.17452 7 3.1 8.19391 3.1 9.66667H7.9C7.9 8.19391 6.82548 7 5.5 7ZM1 1H19V13H1V1Z" stroke="white" stroke-linecap="square"/>
<path d="M16.6 4.66667H10M16.6 6.66667H10M16.6 8.66667H10M5.5 7C6.32843 7 7 6.25381 7 5.33333C7 4.41286 6.32843 3.66667 5.5 3.66667C4.67157 3.66667 4 4.41286 4 5.33333C4 6.25381 4.67157 7 5.5 7ZM5.5 7C4.17452 7 3.1 8.19391 3.1 9.66667H7.9C7.9 8.19391 6.82548 7 5.5 7ZM1 1H19V13H1V1Z" stroke="#1194F3" stroke-linecap="square"/>
</svg>
