<svg width="15" height="17" viewBox="0 0 15 17" fill="none" xmlns="http://www.w3.org/2000/svg">
<path d="M6.98433 8.18898C8.10934 8.18898 9.08339 7.78548 9.87949 6.98939C10.6753 6.19342 11.0789 5.21951 11.0789 4.09436C11.0789 2.9696 10.6755 1.99556 9.87936 1.19933C9.08326 0.403496 8.10921 0 6.98433 0C5.85918 0 4.88527 0.403496 4.0893 1.19946C3.29333 1.99543 2.88971 2.96947 2.88971 4.09436C2.88971 5.21951 3.29333 6.19355 4.0893 6.98952C4.88553 7.78535 5.85957 8.18898 6.98433 8.18898ZM4.79383 1.90386C5.40459 1.29311 6.12105 0.996223 6.98433 0.996223C7.84748 0.996223 8.56407 1.29311 9.17496 1.90386C9.78571 2.51475 10.0827 3.23134 10.0827 4.09436C10.0827 4.95764 9.78571 5.6741 9.17496 6.28499C8.56407 6.89587 7.84748 7.19276 6.98433 7.19276C6.12131 7.19276 5.40485 6.89574 4.79383 6.28499C4.18295 5.67423 3.88593 4.95764 3.88593 4.09436C3.88593 3.23134 4.18295 2.51475 4.79383 1.90386Z" fill="#089CFF"/>
<path d="M14.1488 13.0722C14.1259 12.7409 14.0794 12.3796 14.0111 11.998C13.9421 11.6136 13.8532 11.2502 13.7469 10.918C13.6369 10.5747 13.4876 10.2356 13.3028 9.91074C13.1112 9.57352 12.8861 9.27988 12.6334 9.03825C12.3692 8.78547 12.0457 8.58223 11.6717 8.43398C11.2989 8.28651 10.8858 8.21181 10.4439 8.21181C10.2704 8.21181 10.1026 8.28301 9.77845 8.49403C9.57897 8.62412 9.34564 8.77457 9.08521 8.94098C8.86251 9.08287 8.56083 9.21581 8.1882 9.33617C7.82465 9.45381 7.45553 9.51347 7.09107 9.51347C6.72688 9.51347 6.35775 9.45381 5.99394 9.33617C5.6217 9.21594 5.31989 9.083 5.09759 8.94111C4.83961 8.77626 4.60616 8.62581 4.40369 8.4939C4.07983 8.28288 3.912 8.21168 3.73846 8.21168C3.29645 8.21168 2.88348 8.28651 2.51086 8.43411C2.13706 8.5821 1.81346 8.78534 1.549 9.03838C1.29635 9.28014 1.07119 9.57365 0.879753 9.91074C0.69519 10.2356 0.545776 10.5745 0.435791 10.9181C0.329567 11.2503 0.240723 11.6136 0.171722 11.998C0.103241 12.3791 0.0569382 12.7405 0.0339813 13.0726C0.0114136 13.3972 0 13.7351 0 14.0764C0 14.9638 0.282097 15.6823 0.838379 16.2121C1.38779 16.7349 2.11462 17 2.99879 17H11.1844C12.0683 17 12.7951 16.7349 13.3447 16.2121C13.9011 15.6826 14.1832 14.964 14.1832 14.0763C14.1831 13.7338 14.1715 13.3959 14.1488 13.0722ZM12.6578 15.4903C12.2948 15.8358 11.8128 16.0038 11.1843 16.0038H2.99879C2.37013 16.0038 1.88817 15.8358 1.52527 15.4904C1.16924 15.1515 0.996223 14.6889 0.996223 14.0764C0.996223 13.7579 1.00673 13.4434 1.02774 13.1414C1.04823 12.8452 1.09013 12.5198 1.15225 12.174C1.2136 11.8325 1.29168 11.512 1.38454 11.2219C1.47365 10.9437 1.59518 10.6682 1.74589 10.4028C1.88972 10.1499 2.05522 9.93292 2.23784 9.75809C2.40865 9.59454 2.62395 9.46069 2.87765 9.3603C3.11227 9.26743 3.37595 9.21659 3.6622 9.20894C3.69709 9.22749 3.75922 9.26289 3.85986 9.32852C4.06466 9.46198 4.30071 9.61425 4.56167 9.78091C4.85583 9.96846 5.23481 10.1378 5.68759 10.284C6.15049 10.4337 6.6226 10.5097 7.0912 10.5097C7.55981 10.5097 8.03204 10.4337 8.49468 10.2841C8.94785 10.1377 9.32671 9.96846 9.62125 9.78065C9.88831 9.60997 10.1177 9.46211 10.3225 9.32852C10.4232 9.26302 10.4853 9.22749 10.5202 9.20894C10.8066 9.21659 11.0703 9.26743 11.305 9.3603C11.5586 9.46069 11.7739 9.59467 11.9447 9.75809C12.1273 9.93279 12.2928 10.1498 12.4366 10.403C12.5875 10.6682 12.7091 10.9438 12.7981 11.2217C12.8911 11.5123 12.9693 11.8326 13.0305 12.1739C13.0925 12.5203 13.1346 12.8458 13.1551 13.1416V13.1418C13.1762 13.4426 13.1868 13.757 13.187 14.0764C13.1868 14.689 13.0138 15.1515 12.6578 15.4903Z" fill="#089CFF"/>
</svg>
