<?xml version="1.0" encoding="UTF-8"?>
<svg fill="none" viewBox="0 0 22 30" xmlns="http://www.w3.org/2000/svg">
    <path d="M0 1.87529V28.1253C0 29.1564 0.834761 30 1.85509 30H19.8943C20.915 30 21.75 29.1561 21.75 28.1247V6.90559C21.75 6.32988 21.5237 5.77776 21.1209 5.37065L16.4356 0.635765C16.0327 0.228706 15.4864 0 14.9167 0H1.85567C0.835052 0 0 0.843882 0 1.87529Z"
          fill="url(#c)"/>
    <path d="m9.5126 19.032c0-0.6861 0.14991-1.2535 0.44972-1.7021 0.31281-0.4486 0.76261-0.9434 1.3492-1.4844 0.4301-0.3958 0.743-0.7257 0.9385-0.9896 0.2086-0.277 0.3128-0.5871 0.3128-0.9302 0-0.4882-0.1955-0.8708-0.5865-1.1479-0.3781-0.2903-0.8864-0.4354-1.5252-0.4354-0.61265 0-1.1601 0.132-1.6424 0.3958-0.46927 0.2507-0.86685 0.607-1.1927 1.0688l-2.3659-1.4052c0.54749-0.8445 1.284-1.4976 2.2095-1.9594 0.93854-0.4618 2.0466-0.6927 3.324-0.6927 1.4991 0 2.6983 0.3233 3.5978 0.9698 0.9125 0.6465 1.3687 1.5437 1.3687 2.6917 0 0.5409-0.0912 1.0159-0.2737 1.425-0.1695 0.409-0.3846 0.7586-0.6453 1.0489-0.2477 0.2771-0.5736 0.6004-0.9776 0.9698-0.4824 0.4354-0.8343 0.8049-1.0559 1.1083-0.2216 0.2903-0.3324 0.6466-0.3324 1.0688h-2.9525zm1.486 4.9677c-0.5344 0-0.9842-0.1715-1.3492-0.5146-0.35195-0.3562-0.52793-0.7851-0.52793-1.2864 0-0.5014 0.17598-0.9171 0.52793-1.2469 0.35196-0.3431 0.80166-0.5146 1.3492-0.5146s0.9972 0.1715 1.3492 0.5146c0.3519 0.3298 0.5279 0.7455 0.5279 1.2469 0 0.5013-0.1825 0.9302-0.5475 1.2864-0.3519 0.3431-0.7951 0.5146-1.3296 0.5146z"
          fill="#fff"/>
    <path d="m16.436 0.63577c-0.2759-0.27882-0.6192-0.47388-0.9911-0.56918v6.1131l6.3056 6.3724v-5.6465c0-0.5757-0.2263-1.1278-0.6291-1.5349l-4.6854-4.7348z"
          fill="url(#b)"/>
    <path d="m21.686 6.379c0.0069 0.03011 0.0132 0.05947 0.019 0.08776h-5.6839c-0.4025 0-0.7288-0.32971-0.7288-0.73647v-5.6961c0.0444 8e-3 0.0911 0.017353 0.1392 0.028118 0.4237 0.094706 0.8101 0.31488 1.1169 0.62494l4.5202 4.5679c0.3056 0.30888 0.5202 0.69824 0.6174 1.1238z"
          fill="url(#a)"/>
    <defs>
        <linearGradient id="c" x1="5.1795" x2="19.449" y1="11.697" y2="25.817" gradientUnits="userSpaceOnUse">
            <stop stop-color="#E3E6F3" offset="0"/>
            <stop stop-color="#D4DAEF" offset="1"/>
        </linearGradient>
        <linearGradient id="b" x1="19.904" x2="17.62" y1="10.219" y2="3.6164" gradientUnits="userSpaceOnUse">
            <stop stop-color="#4C8DF1" stop-opacity="0" offset="0"/>
            <stop stop-color="#D1D7E4" offset="1"/>
        </linearGradient>
        <linearGradient id="a" x1="16.013" x2="18.644" y1="3.4546" y2="6.0576" gradientUnits="userSpaceOnUse">
            <stop stop-color="#D1D7E4" offset="0"/>
            <stop stop-color="#ECF2FB" offset="1"/>
        </linearGradient>
    </defs>
</svg>
