<svg width="10" height="18" viewBox="0 0 10 18" fill="none" xmlns="http://www.w3.org/2000/svg">
<path opacity="0.5" d="M6.10352e-05 9.03137C6.10352e-05 9.23132 0.0599365 9.43127 0.169983 9.58124L5.17004 17.0812C5.35004 17.3513 5.64996 17.5313 6.00006 17.5313H9.00006C9.54993 17.5313 10 17.0812 10 16.5314C10 16.3312 9.93994 16.1313 9.83008 15.9813L5.20007 9.03137L9.83008 2.08124C9.93994 1.93127 10 1.73132 10 1.53137C10 0.981323 9.54993 0.53125 9.00006 0.53125H6.00006C5.64996 0.53125 5.35004 0.711243 5.17004 0.981323L0.169983 8.48132C0.0599365 8.63128 6.10352e-05 8.83124 6.10352e-05 9.03137Z" fill="#ABC3EB"/>
</svg>
