<svg width="22" height="15" viewBox="0 0 22 15" fill="none" xmlns="http://www.w3.org/2000/svg">
<path d="M21.8602 6.58309C21.6637 6.31423 16.9808 0 10.9999 0C5.01902 0 0.335931 6.31423 0.139606 6.58283C-0.0465353 6.83789 -0.0465353 7.18384 0.139606 7.4389C0.335931 7.70776 5.01902 14.022 10.9999 14.022C16.9808 14.022 21.6637 7.70771 21.8602 7.43911C22.0466 7.18409 22.0466 6.83789 21.8602 6.58309ZM10.9999 12.5714C6.59435 12.5714 2.77867 8.38056 1.64915 7.0105C2.77721 5.63923 6.58489 1.45054 10.9999 1.45054C15.4052 1.45054 19.2207 5.64069 20.3507 7.01149C19.2226 8.38271 15.4149 12.5714 10.9999 12.5714Z" fill="#6B7888"/>
<path d="M10.9991 2.65967C8.59966 2.65967 6.64746 4.61187 6.64746 7.01134C6.64746 9.41081 8.59966 11.363 10.9991 11.363C13.3986 11.363 15.3508 9.41081 15.3508 7.01134C15.3508 4.61187 13.3986 2.65967 10.9991 2.65967ZM10.9991 9.91243C9.3994 9.91243 8.09805 8.61103 8.09805 7.01134C8.09805 5.41165 9.39944 4.11025 10.9991 4.11025C12.5988 4.11025 13.9002 5.41165 13.9002 7.01134C13.9002 8.61103 12.5989 9.91243 10.9991 9.91243Z" fill="#6B7888"/>
</svg>
