<svg width="18" height="16" viewBox="0 0 18 16" fill="none" xmlns="http://www.w3.org/2000/svg">
<path d="M8.75105 11.2437C8.26173 11.2437 7.85156 11.6539 7.85156 12.1432C7.85156 12.6326 8.26173 13.0427 8.75105 13.0427C9.22237 13.0427 9.65053 12.6326 9.62894 12.1648C9.65053 11.6503 9.24396 11.2437 8.75105 11.2437Z" fill="#FD397A"/>
<path d="M17.0767 14.4313C17.6416 13.4563 17.6452 12.2941 17.0839 11.3227L11.4495 1.5651C10.8919 0.582865 9.88443 0 8.75468 0C7.62493 0 6.61751 0.586463 6.05983 1.5615L0.418277 11.3299C-0.143001 12.3121 -0.139403 13.4814 0.429071 14.4565C0.990348 15.4207 1.99417 16 3.11673 16H14.3711C15.4972 16 16.5082 15.4135 17.0767 14.4313ZM15.8534 13.7261C15.5404 14.2658 14.9863 14.586 14.3675 14.586H3.11313C2.50148 14.586 1.951 14.273 1.64517 13.7441C1.33575 13.208 1.33215 12.5676 1.64157 12.0279L7.28313 2.2631C7.58895 1.72701 8.13584 1.41039 8.75468 1.41039C9.36993 1.41039 9.92041 1.73061 10.2262 2.2667L15.8642 12.0315C16.1664 12.5568 16.1628 13.19 15.8534 13.7261Z" fill="#FD397A"/>
<path d="M8.52773 4.9293C8.09958 5.05163 7.83333 5.44021 7.83333 5.91154C7.85492 6.19577 7.87291 6.48361 7.8945 6.76784C7.95566 7.85082 8.01683 8.91221 8.07799 9.99519C8.09958 10.3622 8.38382 10.6284 8.75081 10.6284C9.11779 10.6284 9.40563 10.3442 9.42362 9.9736C9.42362 9.75053 9.42362 9.54544 9.44521 9.31878C9.48478 8.62437 9.52796 7.92997 9.56754 7.23557C9.58912 6.78583 9.6287 6.33609 9.65029 5.88635C9.65029 5.72444 9.6287 5.58053 9.56754 5.43661C9.38404 5.03364 8.95589 4.82856 8.52773 4.9293Z" fill="#FD397A"/>
</svg>
