<svg width="14" height="14" viewBox="0 0 14 14" fill="none" xmlns="http://www.w3.org/2000/svg">
<circle cx="7" cy="7" r="7" fill="#1DC9B7"/>
<path d="M10.8031 4.23537C11.0656 4.54935 11.0656 5.05832 10.8031 5.37214L6.29399 10.7646C6.03144 11.0785 5.60597 11.0785 5.34342 10.7646L3.19692 8.19751C2.93436 7.88369 2.93436 7.37472 3.19692 7.0609C3.45934 6.74691 3.88494 6.74691 4.14736 7.0609L5.81864 9.05955L9.85251 4.23537C10.1151 3.92154 10.5407 3.92154 10.8031 4.23537Z" fill="#1DC9B7"/>
<path d="M10.8031 4.23537C11.0656 4.54935 11.0656 5.05832 10.8031 5.37214L6.29399 10.7646C6.03144 11.0785 5.60597 11.0785 5.34342 10.7646L3.19692 8.19751C2.93436 7.88369 2.93436 7.37472 3.19692 7.0609C3.45934 6.74691 3.88494 6.74691 4.14736 7.0609L5.81864 9.05955L9.85251 4.23537C10.1151 3.92154 10.5407 3.92154 10.8031 4.23537Z" fill="white"/>
</svg>
