<?xml version="1.0" standalone="no"?>
<!DOCTYPE svg PUBLIC "-//W3C//DTD SVG 20010904//EN"
 "http://www.w3.org/TR/2001/REC-SVG-20010904/DTD/svg10.dtd">
<svg version="1.0" xmlns="http://www.w3.org/2000/svg"
 width="700.000000pt" height="700.000000pt" viewBox="0 0 700.000000 700.000000"
 preserveAspectRatio="xMidYMid meet">
<metadata>
Created by potrace 1.11, written by Peter Selinger 2001-2013
</metadata>
<g transform="translate(0.000000,700.000000) scale(0.100000,-0.100000)"
fill="#000000" stroke="none">
<path d="M0 3500 l0 -3500 3500 0 3500 0 0 3500 0 3500 -3500 0 -3500 0 0
-3500z m3283 1997 c16 -10 32 -28 36 -40 5 -13 10 -875 12 -1917 3 -1837 3
-1896 -16 -1934 -30 -62 -51 -66 -315 -66 -300 0 -307 3 -325 123 -4 26 -10
47 -12 47 -3 0 -62 -31 -132 -69 -190 -104 -345 -147 -561 -158 -259 -12 -480
29 -675 127 -149 74 -231 134 -366 269 -209 210 -335 454 -396 766 -26 134
-23 387 5 522 167 781 902 1251 1687 1077 110 -24 181 -51 312 -117 67 -33
126 -57 130 -53 4 4 8 315 8 691 l0 683 24 26 c14 15 39 31 55 36 17 5 137 8
266 7 208 -2 239 -4 263 -20z m1000 1 c16 -11 31 -34 38 -60 9 -33 10 -338 6
-1240 -4 -658 -4 -1374 0 -1592 l6 -396 1037 -2 c959 -3 1038 -4 1062 -20 46
-30 53 -72 53 -323 0 -266 -4 -282 -77 -309 -39 -15 -167 -16 -1360 -14
l-1318 3 -27 28 -28 27 0 1929 c0 1888 0 1929 19 1950 11 12 33 26 50 31 17 5
139 8 271 7 210 -2 244 -4 268 -19z m982 2 c16 -8 35 -26 42 -40 10 -20 13
-262 13 -1146 l0 -1121 550 1 549 1 26 -26 c37 -36 47 -121 43 -351 -3 -211
-11 -242 -63 -266 -19 -9 -230 -12 -841 -12 -905 0 -866 -3 -898 65 -14 30
-16 180 -16 1443 0 1335 1 1411 18 1432 27 34 70 39 317 37 182 -2 236 -5 260
-17z"/>
<path d="M1805 3604 c-288 -64 -488 -247 -565 -514 -31 -107 -38 -292 -16
-394 49 -219 228 -421 445 -503 203 -77 398 -69 590 24 154 74 276 212 338
381 111 302 42 617 -180 829 -86 81 -152 121 -262 158 -102 35 -246 42 -350
19z"/>
</g>
</svg>
