<svg width="38" height="25" viewBox="0 0 38 25" fill="none" xmlns="http://www.w3.org/2000/svg"><path fill-rule="evenodd" clip-rule="evenodd" d="M8.392 11.794c2.56-.327 4.66 1.702 4.857 4.059.197 2.75-1.51 4.779-3.872 5.04-2.691.263-4.923-1.701-5.054-4.058-.131-2.815 1.575-4.714 4.07-5.041zM13.38.861c0 2.422.132 5.827 0 8.118-.46 0-1.64-1.31-4.856-1.31-5.58 0-9.977 5.434-8.073 11.392.787 2.488 2.69 4.451 4.857 5.368 1.247.524 2.756.655 4.397.524.656-.066 1.51-.328 2.034-.524.591-.262 1.248-.72 1.641-.851.132.851.066 1.047 1.05 1.047 3.676 0 3.085.786 3.085-4.779V1.908c0-2.16.197-1.898-2.756-1.898-.788 0-1.313-.065-1.379.851zm10.305 19.64c-.066-5.958 0-12.177 0-18.2 0-2.75.328-2.226-3.085-2.291-1.181 0-.985.458-.985 1.571v21.08c-.065 2.357-.262 1.964 3.282 1.964h13.127c1.115 0 1.05-.523 1.05-1.57 0-2.947.197-2.554-2.757-2.554H23.685z" fill="#fff"/><path fill-rule="evenodd" clip-rule="evenodd" d="M25.785.992v15.254c0 1.57-.197 2.226 1.116 2.226h9.188c1.247 0 .985-.72.985-2.685 0-1.702-.131-1.44-2.954-1.44l-4.266.066V1.516c0-1.702.131-1.506-2.953-1.506-.92 0-1.182.065-1.116.982z" fill="#fff"/></svg>