<svg xmlns="http://www.w3.org/2000/svg"><defs><linearGradient y2=".861" x2=".894" y1=".39" x1=".238" id="paint0_linear"><stop stop-color="#E3E6F3"/><stop stop-color="#D4DAEF" offset="1"/></linearGradient><linearGradient y2=".284" x2=".345" y1=".813" x1=".707" id="paint1_linear"><stop stop-opacity="0" stop-color="#4C8DF1"/><stop stop-color="#D1D7E4" offset="1"/></linearGradient><linearGradient y2=".936" x2=".523" y1=".532" x1=".112" id="paint2_linear"><stop stop-color="#D1D7E4"/><stop stop-color="#ECF2FB" offset="1"/></linearGradient><clipPath id="clip01"><path d="M0 0h16v16H0V0z"/></clipPath><clipPath id="clip0"><path d="M0 0h16v16H0V0z"/></clipPath><clipPath id="clip0"><path id="svg_1" d="M-221-368h1920v960H-221z"/></clipPath><filter color-interpolation-filters="sRGB" filterUnits="userSpaceOnUse" height="106" width="550" y="-15" x="-16" id="filter0_d"><feGaussianBlur stdDeviation="2.5"/></filter></defs><symbol id="arrow-left" viewBox="0 0 7 8"><path d="M6.1 7.927c-.955-.532-2.307-1.425-3.5-2.212-.624-.413-1.214-.802-1.662-1.085A.736.736 0 01.6 4c0-.263.126-.499.338-.631.448-.282 1.038-.67 1.662-1.083C3.793 1.498 5.145.606 6.1.073A.556.556 0 016.371 0C6.718 0 7 .32 7 .715v6.57C7 7.68 6.718 8 6.372 8a.556.556 0 01-.273-.073z"/></symbol><symbol id="arrow-right" viewBox="0 0 7 8"><path d="M.9 7.927c.954-.532 2.306-1.425 3.499-2.212a99.657 99.657 0 011.663-1.084A.736.736 0 006.4 4a.736.736 0 00-.338-.631A95.312 95.312 0 014.4 2.286C3.207 1.498 1.855.606.9.073A.556.556 0 00.629 0C.282 0 0 .32 0 .715v6.57C0 7.68.282 8 .628 8a.556.556 0 00.273-.073z"/></symbol><symbol id="button-arrow-small" viewBox="0 0 8 5"><path d="M4.16 4.16L7.455.895a.366.366 0 000-.52.372.372 0 00-.523 0L3.898 3.382.863.375a.372.372 0 00-.524 0 .366.366 0 000 .519L3.636 4.16a.376.376 0 00.523 0z"/></symbol><symbol id="calendar" viewBox="0 0 14 15"><path d="M11.773.882h-.398v-.44A.439.439 0 0010.937 0a.439.439 0 00-.437.441v.441H7.437v-.44A.439.439 0 007 0a.439.439 0 00-.438.441v.441H3.5v-.44A.439.439 0 003.062 0a.439.439 0 00-.437.441v.441h-.398A2.239 2.239 0 000 3.128v9.626C0 13.993.999 15 2.227 15h9.546A2.239 2.239 0 0014 12.754V3.128A2.239 2.239 0 0011.773.882zm1.352 11.872a1.36 1.36 0 01-1.352 1.364H2.227a1.359 1.359 0 01-1.352-1.364v-7.46h12.25v7.46zm0-8.342H.875V3.128c0-.752.606-1.363 1.352-1.363h.398v1.323a.44.44 0 00.438.441.439.439 0 00.437-.44V1.764h3.063v1.323c0 .244.195.441.437.441a.439.439 0 00.438-.44V1.764H10.5v1.323a.44.44 0 00.438.441.439.439 0 00.437-.44V1.764h.398a1.36 1.36 0 011.352 1.363v1.284z"/></symbol><symbol id="copy" viewBox="0 0 12 15"><path d="M8.152 2.623H1.185C.53 2.623 0 3.155 0 3.81v10.005C0 14.47.531 15 1.185 15h6.967c.653 0 1.184-.531 1.184-1.186V3.81a1.19 1.19 0 00-1.184-1.186zm.352 11.188c0 .197-.16.357-.356.357H1.182a.356.356 0 01-.356-.357V3.81c0-.197.16-.356.356-.356h6.966c.197 0 .356.16.356.356v10z"/><path d="M10.815 0H3.848c-.653 0-1.184.531-1.184 1.186a.413.413 0 10.828 0c0-.197.16-.357.356-.357h6.967c.197 0 .356.16.356.357V11.19c0 .197-.16.357-.356.357a.412.412 0 00-.414.414c0 .23.184.415.414.415.654 0 1.185-.532 1.185-1.186V1.186C12 .53 11.469 0 10.815 0z"/></symbol><symbol id="cross-small" viewBox="0 0 10 10"><path id="Vector (Stroke)" fill-rule="evenodd" clip-rule="evenodd" d="M4.9 4.34L9.348 0 10 .668 5.561 5 10 9.332 9.347 10 4.901 5.66.668 9.992 0 9.34 4.24 5 0 .66.668.008 4.901 4.34z"/></symbol><symbol id="datepicker-next" viewBox="0 0 13 7"><path d="M6.875 6.814l5.769-5.717a.64.64 0 000-.909.65.65 0 00-.915 0L6.417 5.452 1.106.189a.652.652 0 00-.917 0 .64.64 0 000 .909l5.77 5.717c.25.247.666.247.916 0z"/></symbol><symbol id="datepicker-prev" viewBox="0 0 13 7"><path d="M6.875.186l5.769 5.717a.64.64 0 010 .909.65.65 0 01-.915 0L6.417 1.548 1.106 6.811a.652.652 0 01-.917 0 .64.64 0 010-.909L5.96.185a.658.658 0 01.916 0z"/></symbol><symbol id="delete" viewBox="0 0 14 15"><path d="M13.91 2.588a.313.313 0 00-.228-.088h-3.073L9.913.87a1.36 1.36 0 00-.536-.616A1.422 1.422 0 008.59 0H5.409a1.42 1.42 0 00-.785.254 1.36 1.36 0 00-.537.615L3.39 2.5H.318A.302.302 0 000 2.812v.626a.3.3 0 00.09.225.31.31 0 00.228.088h.955v9.297c0 .54.155 1 .467 1.382.312.38.686.571 1.124.571h8.272c.438 0 .813-.197 1.124-.59.312-.395.467-.862.467-1.402V3.75h.955c.093 0 .169-.03.229-.088A.302.302 0 0014 3.437v-.625a.302.302 0 00-.09-.224zm-8.65-1.23a.28.28 0 01.169-.108h3.152a.281.281 0 01.169.107L9.227 2.5H4.773l.487-1.143zm6.195 11.65a1.088 1.088 0 01-.214.659c-.05.056-.085.083-.105.083H2.864c-.02 0-.055-.027-.105-.083a1.092 1.092 0 01-.214-.659V3.75h8.91v9.258z"/><path d="M4.136 11.875h.637a.302.302 0 00.318-.313V5.938a.302.302 0 00-.318-.312h-.637a.302.302 0 00-.318.312v5.626a.301.301 0 00.318.312zm2.546 0h.636c.093 0 .17-.03.229-.088a.3.3 0 00.09-.224V5.937a.3.3 0 00-.09-.224.313.313 0 00-.229-.088h-.636a.301.301 0 00-.318.312v5.626a.301.301 0 00.318.312zm2.545 0h.637a.301.301 0 00.318-.313V5.938a.302.302 0 00-.318-.312h-.637a.302.302 0 00-.318.312v5.626a.302.302 0 00.318.312z"/></symbol><symbol id="dll-clear" viewBox="0 0 37 25"><path fill-rule="evenodd" clip-rule="evenodd" d="M8.37 11.794c2.553-.327 4.648 1.702 4.845 4.059.196 2.75-1.506 4.779-3.863 5.04-2.684.263-4.91-1.701-5.04-4.058-.131-2.815 1.57-4.714 4.058-5.041zM13.345.861c0 2.422.131 5.827 0 8.118-.458 0-1.636-1.31-4.844-1.31-5.564 0-9.95 5.434-8.051 11.392.785 2.488 2.683 4.451 4.844 5.368 1.243.524 2.75.655 4.386.524.654-.066 1.505-.328 2.029-.524.59-.262 1.244-.72 1.636-.851.131.851.066 1.047 1.048 1.047 3.666 0 3.076.786 3.076-4.779V1.908c0-2.16.197-1.898-2.749-1.898-.785 0-1.31-.065-1.375.851zm10.278 19.64c-.066-5.958 0-12.177 0-18.2 0-2.75.327-2.226-3.077-2.291-1.178 0-.982.458-.982 1.571v21.08c-.065 2.357-.262 1.964 3.273 1.964H35.93c1.112 0 1.047-.523 1.047-1.57 0-2.947.196-2.554-2.75-2.554H23.624z"/><path fill-rule="evenodd" clip-rule="evenodd" d="M25.718.992v15.254c0 1.57-.197 2.226 1.113 2.226h9.164c1.244 0 .982-.72.982-2.685 0-1.702-.13-1.44-2.946-1.44l-4.255.066V1.516c0-1.702.131-1.506-2.945-1.506-.917 0-1.179.065-1.113.982z"/></symbol><symbol id="download" viewBox="0 0 14 13"><path fill-rule="evenodd" d="M7.494 8.286l1.668-1.672a.494.494 0 11.7.699L7.348 9.828a.482.482 0 01-.349.146.495.495 0 01-.348-.146L4.136 7.313a.494.494 0 11.699-.7l1.671 1.673V.494C6.506.22 6.726 0 7 0s.494.22.494.494v7.792zm5.518-1.55a.494.494 0 11.988 0v3.6A2.666 2.666 0 0111.338 13H2.662A2.665 2.665 0 010 10.336V6.677c0-.274.22-.494.494-.494s.494.22.494.494v3.66c0 .921.75 1.675 1.674 1.675h8.676c.921 0 1.674-.75 1.674-1.676v-3.6z" clip-rule="evenodd"/></symbol><symbol id="dropdown" viewBox="0 0 11 6"><path d="M5.893 5.84l4.945-4.9a.548.548 0 000-.779.558.558 0 00-.785 0L5.5 4.673.948.162a.559.559 0 00-.786 0 .548.548 0 000 .779l4.945 4.9a.564.564 0 00.786 0z"/></symbol><symbol id="edit" viewBox="0 0 14 14"><path d="M14 2.186c0-.585-.23-1.135-.644-1.548a2.198 2.198 0 00-3.1.003L1.431 9.487a2.627 2.627 0 00-.634 1.025l-.008.025L0 14l3.478-.777.026-.009c.385-.127.74-.346 1.028-.633l8.827-8.847A2.17 2.17 0 0014 2.186zM1.929 12.449l-.37-.368.267-1.17 1.277 1.275-1.174.263zm10.655-9.487l-8.57 8.59-1.551-1.55 5.87-5.884.894.892.774-.773-.896-.894.833-.834.897.895.774-.772-.899-.897.321-.322a1.1 1.1 0 011.552-.001 1.09 1.09 0 01.001 1.55zm-6.825 9.933H14v1.093H4.668l1.091-1.093z"/></symbol><symbol id="logout" viewBox="0 0 16 16"><path d="M1.716 16h5.798c.954 0 1.733-.863 1.733-1.903v-1.683c0-.26-.194-.471-.432-.471-.24 0-.432.21-.432.471v1.683c-.002.524-.388.952-.869.959H1.716c-.477 0-.852-.439-.852-.96V1.893c-.006-.518.374-.942.847-.948h5.803c.479.002.866.425.869.948V3.54c0 .26.193.472.432.472.238 0 .432-.211.432-.472V1.892C9.244.848 8.47.002 7.514 0H1.716C.765.004-.004.85 0 1.889v12.208C0 15.137.763 16 1.716 16z"/><path d="M14.517 7.504H4.29c-.239 0-.432.212-.432.472s.193.472.432.472h10.322l-2.217 2.8a.509.509 0 00.043.67c.18.171.453.151.61-.045l2.794-3.516A.49.49 0 0016 7.98a.484.484 0 00-.178-.367L13.028 4.56a.407.407 0 00-.611 0 .492.492 0 00-.006.653l.006.006 2.1 2.285z"/></symbol><symbol id="menu-agents" viewBox="0 0 16 16"><path d="M7.894 7.707c1.11 0 2.072-.38 2.858-1.129.785-.749 1.184-1.666 1.184-2.724 0-1.06-.398-1.976-1.184-2.725C9.966.379 9.004 0 7.894 0S5.822.38 5.036 1.129c-.785.749-1.184 1.666-1.184 2.725 0 1.058.399 1.975 1.184 2.724.786.75 1.748 1.13 2.858 1.13zM5.732 1.792c.603-.575 1.31-.854 2.162-.854.852 0 1.56.279 2.162.854.603.575.897 1.25.897 2.062 0 .812-.294 1.486-.896 2.061-.604.575-1.31.855-2.163.855-.852 0-1.559-.28-2.162-.855s-.896-1.249-.896-2.061c0-.813.293-1.487.896-2.062zm9.234 10.511a9.105 9.105 0 00-.136-1.01 7.654 7.654 0 00-.26-1.017 4.903 4.903 0 00-.439-.948 3.6 3.6 0 00-.66-.821 2.955 2.955 0 00-.95-.57 3.423 3.423 0 00-1.212-.208c-.171 0-.337.067-.657.265-.197.123-.427.264-.684.421a4.02 4.02 0 01-.886.372c-.358.11-.723.167-1.083.167-.359 0-.723-.056-1.082-.167a4.006 4.006 0 01-.885-.372 94.184 94.184 0 01-.685-.42c-.32-.2-.486-.266-.657-.266-.436 0-.844.07-1.212.209a2.93 2.93 0 00-.949.569 3.6 3.6 0 00-.66.82c-.183.307-.33.626-.439.949a7.678 7.678 0 00-.26 1.016 9.04 9.04 0 00-.136 1.012 13.06 13.06 0 00-.034.944c0 .836.278 1.512.828 2.01.542.493 1.26.742 2.132.742h8.08c.872 0 1.59-.25 2.132-.742.55-.498.828-1.174.828-2.01 0-.322-.011-.64-.034-.945zm-1.472 2.276c-.358.325-.834.483-1.454.483H3.96c-.62 0-1.096-.158-1.454-.483-.352-.319-.523-.754-.523-1.33 0-.3.01-.596.031-.88.02-.28.062-.586.123-.911a6.77 6.77 0 01.23-.896 4.05 4.05 0 01.356-.771c.142-.238.306-.442.486-.607a1.95 1.95 0 01.631-.374 2.36 2.36 0 01.775-.143c.034.018.096.051.195.113.202.125.435.269.693.426.29.176.664.335 1.111.473A4.7 4.7 0 008 9.891c.462 0 .928-.071 1.385-.212a4.998 4.998 0 001.112-.474c.264-.16.49-.3.692-.425.1-.062.16-.095.195-.113.283.007.543.055.775.143.25.094.463.22.631.374.18.165.344.369.486.607.149.25.269.509.357.77.092.274.169.576.23.897.06.326.102.632.122.91.021.284.032.58.032.88 0 .577-.171 1.012-.523 1.331z"/></symbol><symbol id="menu-calculations" viewBox="0 0 16 16"><g clip-path="url(#clip01)"><path d="M15.667 7.667A.33.33 0 0116 8a.33.33 0 01-.333.333h-.333v-.666h.333zm-7.334 0h7v.666h-7v-.666z"/><path d="M14.333 16H8a.33.33 0 00.333-.333v-.334h6c.554 0 1-.446 1-1v-6h.334A.33.33 0 0016 8v6.333c0 .92-.747 1.667-1.667 1.667zM16 1.667V8a.33.33 0 00-.333-.333h-.333v-6c0-.554-.447-1-1-1h-6V.333A.33.33 0 008 0h6.333C15.253 0 16 .747 16 1.667z"/><path d="M13.333 4a.33.33 0 01.334.333.33.33 0 01-.334.334h-2.666a.33.33 0 01-.333-.334.33.33 0 01.333-.333h2.666zm0 6.667a.33.33 0 01.334.333.33.33 0 01-.334.333h-2.666a.33.33 0 01-.333-.333.33.33 0 01.333-.333h2.666zm0 2a.33.33 0 01.334.333.33.33 0 01-.334.333h-2.666a.33.33 0 01-.333-.333.33.33 0 01.333-.333h2.666zm-5 2.666v.334A.33.33 0 018 16a.33.33 0 01-.333-.333v-.334h.666zm-.666-7h.666v7h-.666v-7zm0-.666h.666v.666h-.666v-.666zm0-7h.666v7h-.666v-7z"/><path d="M8.333.333v.334h-.666V.333A.33.33 0 018 0a.33.33 0 01.333.333zM.667 7.667h7v.666h-7v-.666zM5.333 4a.33.33 0 01.334.333.33.33 0 01-.334.334h-1V4h1zm-.1 8.767a.322.322 0 010 .466.313.313 0 01-.233.1.313.313 0 01-.233-.1L4 12.467 4.467 12l.766.767zm-.466-2a.322.322 0 01.466 0 .322.322 0 010 .466L4.467 12 4 11.533l.767-.766zM3.532 12l.466-.467.467.466-.467.467L3.532 12zm.801-7.333v1A.33.33 0 014 6a.33.33 0 01-.333-.333v-1h.666zM3.667 4h.666v.667h-.666V4z"/><path d="M4.333 3v1h-.666V3A.33.33 0 014 2.667.33.33 0 014.333 3zM4 11.533L3.533 12l-.766-.767a.322.322 0 010-.466.322.322 0 01.466 0l.767.766zM3.667 4v.667h-1a.33.33 0 01-.334-.334A.33.33 0 012.667 4h1zm-.434 9.233a.313.313 0 01-.233.1.313.313 0 01-.233-.1.322.322 0 010-.466L3.533 12l.467.467-.767.766zM.667 7.667v.666H.333A.33.33 0 010 8a.33.33 0 01.333-.333h.334z"/><path d="M0 1.667C0 .747.747 0 1.667 0H8a.33.33 0 00-.333.333v.334h-6c-.554 0-1 .446-1 1v6H.333A.33.33 0 000 8V1.667zm.667 12.666c0 .554.446 1 1 1h6v.334A.33.33 0 008 16H1.667C.747 16 0 15.253 0 14.333V8a.33.33 0 00.333.333h.334v6z"/></g></symbol><symbol id="menu-catalogs" viewBox="0 0 16 16"><g clip-path="url(#clip0)"><path d="M16 8c0 4.422-3.579 8-8 8-4.422 0-8-3.579-8-8 0-4.422 3.579-8 8-8 4.422 0 8 3.579 8 8zm-1 0c0-3.731-3.27-7-7-7-3.731 0-7 3.27-7 7 0 3.731 3.27 7 7 7 3.731 0 7-3.27 7-7z"/><path fill-rule="evenodd" clip-rule="evenodd" d="M8 6.273c.351 0 .636.285.636.636v4.455a.636.636 0 11-1.272 0V6.909c0-.351.284-.636.636-.636z"/><path d="M8.636 4.636a.636.636 0 11-1.272 0 .636.636 0 011.272 0z"/></g></symbol><symbol id="menu-groups" viewBox="0 0 16 16"><path fill-rule="evenodd" clip-rule="evenodd" d="M.993 6.46h5.489V1.006H.992V6.46zm0 8.533h5.489V9.54H.992v5.452zm8.525 0h5.49V9.54h-5.49v5.452zm0-13.986V6.46h5.49V1.007h-5.49zM.993 7.467A1 1 0 010 6.459V1.007A1 1 0 01.993 0h5.489a1 1 0 01.992 1.007V6.46a1 1 0 01-.992 1.008H.992zm0 8.533A1 1 0 010 14.993V9.54a1 1 0 01.993-1.008h5.489a1 1 0 01.992 1.008v5.452A1 1 0 016.482 16H.992zm8.525 0a1 1 0 01-.992-1.007V9.54a1 1 0 01.992-1.008h5.49A1 1 0 0116 9.541v5.452A1 1 0 0115.007 16H9.518zM8.526 1.007A1 1 0 019.518 0h5.49A1 1 0 0116 1.007V6.46a1 1 0 01-.993 1.008H9.518a1 1 0 01-.992-1.008V1.007z"/></symbol><symbol id="menu-home" viewBox="0 0 15 16"><path fill-rule="evenodd" clip-rule="evenodd" d="M7.226.09a.462.462 0 01.548 0l7.054 5.3a.425.425 0 01.172.34v8.326c0 .515-.212 1.01-.59 1.375a2.05 2.05 0 01-1.423.569H2.013a2.05 2.05 0 01-1.423-.57A1.911 1.911 0 010 14.057V5.729c0-.133.063-.258.172-.34L7.226.091zM5.594 15.14h3.812V8.43H5.594v6.71zm4.703 0V8c0-.238-.2-.43-.446-.43H5.15a.438.438 0 00-.446.43v7.14h-2.69c-.297 0-.583-.115-.793-.318a1.065 1.065 0 01-.329-.766V5.94L7.5.975l6.609 4.965v8.116c0 .287-.118.563-.329.766-.21.203-.496.317-.793.317h-2.69z"/></symbol><symbol id="menu-projects" viewBox="0 0 16 16"><path d="M15.534 2.867h-4.253V2.4c0-.772-.63-1.4-1.406-1.4h-3.75c-.775 0-1.406.628-1.406 1.4v.467H.469A.469.469 0 000 3.333V13.6c0 .772.63 1.4 1.406 1.4h13.188c.775 0 1.406-.628 1.406-1.4V3.341c-.018-.306-.207-.473-.466-.474zM5.656 2.4c0-.257.21-.467.469-.467h3.75a.47.47 0 01.469.467v.467H5.656V2.4zm9.225 1.4l-1.456 4.348a.468.468 0 01-.444.319h-2.637V8a.468.468 0 00-.469-.467h-3.75A.468.468 0 005.656 8v.467H3.02a.468.468 0 01-.444-.32L1.119 3.8h13.762zM9.406 8.467V9.4H6.594v-.933h2.812zm5.656 5.133c0 .257-.21.467-.468.467H1.406a.468.468 0 01-.468-.467V6.21l.747 2.233c.192.572.728.957 1.334.957h2.637v.467c0 .257.21.466.469.466h3.75a.468.468 0 00.469-.466V9.4h2.637c.606 0 1.142-.385 1.334-.957l.748-2.234V13.6z"/></symbol><symbol id="menu-settings" viewBox="0 0 16 16"><path d="M15.181 6.32l-1.123-.19a6.345 6.345 0 00-.451-1.09l.662-.926a.985.985 0 00-.107-1.273l-.996-.996a.981.981 0 00-1.27-.107l-.93.662a6.277 6.277 0 00-1.13-.465L9.65.825A.987.987 0 008.673 0H7.266a.987.987 0 00-.976.826l-.194 1.136c-.374.117-.738.27-1.086.458l-.919-.662a.981.981 0 00-.575-.184.975.975 0 00-.698.291l-1 .996a.99.99 0 00-.107 1.274l.669.939c-.184.35-.331.715-.445 1.093l-1.11.187A.987.987 0 000 7.33v1.407c0 .485.348.896.826.976l1.136.194c.117.374.27.739.458 1.086l-.659.916a.985.985 0 00.107 1.273l.996.996a.981.981 0 001.27.107l.94-.668c.337.177.692.32 1.056.434l.187 1.123c.08.478.491.826.976.826h1.41a.987.987 0 00.976-.826l.191-1.123a6.344 6.344 0 001.09-.45l.925.661c.168.12.368.184.575.184a.981.981 0 00.699-.291l.996-.996a.99.99 0 00.107-1.274l-.662-.929c.184-.35.338-.715.451-1.09l1.123-.186A.987.987 0 0016 8.704V7.296a.975.975 0 00-.819-.976zm-.077 2.384c0 .043-.03.08-.073.086l-1.404.234a.449.449 0 00-.361.331 5.35 5.35 0 01-.582 1.4.452.452 0 00.02.492l.826 1.163a.091.091 0 01-.01.114l-.996.996a.085.085 0 01-.064.027.082.082 0 01-.05-.017l-1.16-.826a.452.452 0 00-.49-.02c-.439.261-.91.455-1.401.582a.444.444 0 00-.331.36l-.238 1.405a.086.086 0 01-.086.073H7.296a.086.086 0 01-.087-.073l-.233-1.404a.449.449 0 00-.331-.361 5.555 5.555 0 01-1.37-.562.463.463 0 00-.228-.06.44.44 0 00-.26.084l-1.17.832a.1.1 0 01-.05.017.09.09 0 01-.064-.027l-.996-.996a.09.09 0 01-.01-.114l.822-1.153a.457.457 0 00.02-.494 5.3 5.3 0 01-.588-1.398.458.458 0 00-.361-.33L.976 8.824a.087.087 0 01-.074-.087V7.33c0-.044.03-.08.074-.087l1.394-.234c.177-.03.32-.16.364-.334a5.33 5.33 0 01.572-1.404.446.446 0 00-.024-.488l-.832-1.17a.091.091 0 01.01-.114l.996-.996a.085.085 0 01.064-.026c.02 0 .036.006.05.016l1.153.823c.147.103.34.11.494.02a5.3 5.3 0 011.398-.589c.17-.046.3-.187.33-.36L7.186.972a.087.087 0 01.087-.074H8.68c.044 0 .08.03.087.074l.234 1.393c.03.178.16.321.334.365.505.127.986.324 1.434.588.154.09.344.084.491-.02l1.154-.829a.1.1 0 01.05-.017.09.09 0 01.063.027l.996.996a.09.09 0 01.01.114l-.825 1.16a.452.452 0 00-.02.49c.26.439.454.91.581 1.401a.444.444 0 00.361.331l1.404.238a.087.087 0 01.073.086v1.408h-.003z"/><path d="M8.002 4.545A3.455 3.455 0 004.55 7.998a3.455 3.455 0 003.452 3.452 3.455 3.455 0 003.453-3.452 3.455 3.455 0 00-3.453-3.453zm0 6.003a2.552 2.552 0 01-2.55-2.55 2.552 2.552 0 012.55-2.55 2.552 2.552 0 012.55 2.55 2.552 2.552 0 01-2.55 2.55z"/></symbol><symbol id="menu-tasks" viewBox="0 0 15 16"><path d="M7 6.147a.502.502 0 00-.708-.001L4.646 7.793 4 7.146a.5.5 0 00-.707.707l1 1A.502.502 0 005 8.854l2-2a.5.5 0 000-.707zm0 4a.502.502 0 00-.708-.001l-1.646 1.647L4 11.147a.5.5 0 00-.707.707l1 1a.498.498 0 00.707 0l2-2a.5.5 0 000-.707zM11.5 7H9a.5.5 0 000 1h2.5a.5.5 0 000-1zm0 4H9a.5.5 0 000 1h2.5a.5.5 0 000-1z"/><path d="M13 2h-2.5v-.5A.5.5 0 0010 1H8.915C8.708.418 8.152 0 7.5 0S6.292.418 6.085 1H5a.5.5 0 00-.5.5V2H2c-.551 0-1 .449-1 1v12c0 .551.449 1 1 1h11c.551 0 1-.449 1-1V3c0-.551-.449-1-1-1zM5.5 2h1a.5.5 0 00.5-.5.5.5 0 011 0 .5.5 0 00.5.5h1v1h-4V2zM13 15H2V3h2.5v.5A.5.5 0 005 4h5a.5.5 0 00.5-.5V3H13v12z"/></symbol><symbol id="menu-templates" viewBox="0 0 16 16"><path fill-rule="evenodd" clip-rule="evenodd" d="M1 7.889h5.111V1H1v6.889zM1 15h5.111v-3.333H1V15zm8.889 0H15V8.111H9.889V15zm0-14v3.333H15V1H9.889zM1 8.889a1 1 0 01-1-1V1a1 1 0 011-1h5.111a1 1 0 011 1v6.889a1 1 0 01-1 1H1zM1 16a1 1 0 01-1-1v-3.333a1 1 0 011-1h5.111a1 1 0 011 1V15a1 1 0 01-1 1H1zm8.889 0a1 1 0 01-1-1V8.111a1 1 0 011-1H15a1 1 0 011 1V15a1 1 0 01-1 1H9.889zm-1-15a1 1 0 011-1H15a1 1 0 011 1v3.333a1 1 0 01-1 1H9.889a1 1 0 01-1-1V1z"/></symbol><symbol id="page-first" viewBox="0 0 8 8"><path d="M3.327 3.714L7.247.118a.47.47 0 01.624 0 .38.38 0 010 .57L4.261 4l3.61 3.31a.38.38 0 010 .572.47.47 0 01-.624 0l-3.92-3.596a.384.384 0 010-.572z"/><path d="M.127 3.714L4.047.118a.47.47 0 01.624 0 .38.38 0 010 .57L1.061 4l3.61 3.31a.38.38 0 010 .572.47.47 0 01-.624 0L.127 4.286a.384.384 0 010-.572z"/></symbol><symbol id="page-last" viewBox="0 0 8 8"><path d="M4.673 3.714L.753.118a.47.47 0 00-.624 0 .38.38 0 000 .57L3.739 4 .128 7.31a.38.38 0 000 .572.47.47 0 00.624 0l3.92-3.596a.384.384 0 000-.572z"/><path d="M4.673 3.714L.753.118a.47.47 0 00-.624 0 .38.38 0 000 .57L3.739 4 .128 7.31a.38.38 0 000 .572.47.47 0 00.624 0l3.92-3.596a.384.384 0 000-.572z"/><path d="M7.873 3.714L3.953.118a.47.47 0 00-.624 0 .38.38 0 000 .57L6.939 4l-3.61 3.31a.38.38 0 000 .572.47.47 0 00.624 0l3.92-3.596a.384.384 0 000-.572z"/><path d="M7.873 3.714L3.953.118a.47.47 0 00-.624 0 .38.38 0 000 .57L6.939 4l-3.61 3.31a.38.38 0 000 .572.47.47 0 00.624 0l3.92-3.596a.384.384 0 000-.572z"/></symbol><symbol id="page-next" viewBox="0 0 5 8"><path d="M4.673 3.714L.753.118a.47.47 0 00-.624 0 .38.38 0 000 .57L3.739 4 .128 7.31a.38.38 0 000 .572.47.47 0 00.624 0l3.92-3.596a.384.384 0 000-.572z"/><path d="M4.673 3.714L.753.118a.47.47 0 00-.624 0 .38.38 0 000 .57L3.739 4 .128 7.31a.38.38 0 000 .572.47.47 0 00.624 0l3.92-3.596a.384.384 0 000-.572z"/></symbol><symbol id="page-prev" viewBox="0 0 5 8"><path d="M.327 3.714L4.247.118a.47.47 0 01.624 0 .38.38 0 010 .57L1.261 4l3.61 3.31a.38.38 0 010 .572.47.47 0 01-.624 0L.327 4.286a.384.384 0 010-.572z"/></symbol><symbol id="pdf-file" viewBox="0 0 14 15"><path d="M3.365 6.123h-.9a.418.418 0 00-.3.13.447.447 0 00-.125.31l.007 3.34c0 .242.19.439.425.439a.432.432 0 00.425-.44V8.89l.468-.002c.747 0 1.355-.62 1.355-1.382 0-.762-.608-1.382-1.355-1.382zm0 1.885c-.11 0-.296 0-.47.002a125.132 125.132 0 01-.003-1.008h.473a.51.51 0 01.505.503.51.51 0 01-.505.503zm3.616-1.885h-.888a.418.418 0 00-.3.129.447.447 0 00-.125.311l.006 3.242c0 .116.046.228.126.31.08.082.187.128.3.128.027 0 .66-.003.913-.007.961-.018 1.658-.881 1.658-2.053 0-1.232-.68-2.06-1.691-2.06zM7 9.357l-.477.005-.004-2.36h.462c.78 0 .84.904.84 1.18 0 .578-.253 1.165-.821 1.175zm4.474-2.389a.433.433 0 00.425-.44.432.432 0 00-.425-.439h-1.3a.432.432 0 00-.425.44v3.315c0 .242.19.44.425.44a.432.432 0 00.425-.44v-1.25h.772a.432.432 0 00.425-.44.432.432 0 00-.425-.439h-.772v-.747h.875z"/><path d="M12.725 4.248h-.312v-.125a2.23 2.23 0 00-.583-1.512L10.064.686A2.102 2.102 0 008.522 0h-5.66C2.16 0 1.587.591 1.587 1.318v2.93h-.312C.572 4.248 0 4.84 0 5.566v5.274c0 .727.572 1.318 1.275 1.318h.312v1.524c0 .727.572 1.318 1.275 1.318h8.276c.703 0 1.275-.591 1.275-1.318v-1.524h.312c.703 0 1.275-.591 1.275-1.318V5.566c0-.727-.572-1.318-1.275-1.318zM2.437 1.318c0-.242.19-.44.425-.44h5.66c.348 0 .685.15.925.412l1.766 1.926c.226.246.35.568.35.907v.125H2.437v-2.93zm9.126 12.364c0 .242-.19.44-.425.44H2.862a.433.433 0 01-.425-.44v-1.524h9.126v1.524zm1.587-2.842c0 .242-.19.44-.425.44H1.275a.433.433 0 01-.425-.44V5.566c0-.242.19-.439.425-.439h11.45c.234 0 .425.197.425.44v5.273z"/></symbol><symbol id="rotate" viewBox="0 0 14 14"><path d="M13.503 1.931a.547.547 0 00-.595.495l-.072.795C11.606 1.291 9.473 0 7 0 4.34 0 1.996 1.518.832 3.797a.547.547 0 00.974.497A5.835 5.835 0 017 1.094a5.825 5.825 0 014.92 2.718l-.78-.557a.547.547 0 00-.635.89l2.365 1.689c.346.247.824.02.862-.395l.266-2.913a.547.547 0 00-.495-.595zm-.573 7.536a.547.547 0 00-.736.239A5.835 5.835 0 017 12.906a5.827 5.827 0 01-4.92-2.718l.78.557a.547.547 0 00.635-.89L1.13 8.166a.547.547 0 00-.862.395l-.266 2.913a.547.547 0 101.09.1l.072-.795C2.394 12.709 4.527 14 7 14c2.66 0 5.004-1.518 6.168-3.797a.547.547 0 00-.238-.736z"/></symbol><symbol id="save-new" viewBox="0 0 23 16"><path fill-rule="evenodd" clip-rule="evenodd" d="M2.4 1.6a.8.8 0 00-.8.8v11.2a.8.8 0 00.8.8h11.2a.8.8 0 00.8-.8V5.131L10.869 1.6H2.4zM.703.703A2.4 2.4 0 012.4 0h8.8a.8.8 0 01.566.234l4 4A.8.8 0 0116 4.8v8.8a2.4 2.4 0 01-2.4 2.4H2.4A2.4 2.4 0 010 13.6V2.4A2.4 2.4 0 01.703.703z"/><path fill-rule="evenodd" clip-rule="evenodd" d="M3.2 8.8A.8.8 0 014 8h8a.8.8 0 01.8.8v6.4a.8.8 0 01-1.6 0V9.6H4.8v5.6a.8.8 0 01-1.6 0V8.8zM4 0a.8.8 0 01.8.8V4h5.6a.8.8 0 010 1.6H4a.8.8 0 01-.8-.8v-4A.8.8 0 014 0zm16 5a.75.75 0 01.75.75v4.5a.75.75 0 01-1.5 0v-4.5A.75.75 0 0120 5z"/><path fill-rule="evenodd" clip-rule="evenodd" d="M17 8a.75.75 0 01.75-.75h4.5a.75.75 0 010 1.5h-4.5A.75.75 0 0117 8z"/></symbol><symbol id="save" viewBox="0 0 17 17"><path fill-rule="evenodd" clip-rule="evenodd" d="M2.55 1.7a.85.85 0 00-.85.85v11.9a.85.85 0 00.85.85h11.9a.85.85 0 00.85-.85V5.452L11.548 1.7H2.55zM.747.747A2.55 2.55 0 012.55 0h9.35a.85.85 0 01.601.249l4.25 4.25A.85.85 0 0117 5.1v9.35A2.55 2.55 0 0114.45 17H2.55A2.55 2.55 0 010 14.45V2.55C0 1.874.269 1.225.747.747z"/><path fill-rule="evenodd" clip-rule="evenodd" d="M3.4 9.35c0-.47.38-.85.85-.85h8.5c.47 0 .85.38.85.85v6.8a.85.85 0 01-1.7 0V10.2H5.1v5.95a.85.85 0 01-1.7 0v-6.8zM4.25 0c.47 0 .85.38.85.85v3.4h5.95a.85.85 0 010 1.7h-6.8a.85.85 0 01-.85-.85V.85c0-.47.38-.85.85-.85z"/></symbol><symbol id="search" viewBox="0 0 15 15"><path d="M6.49 0C2.912 0 0 2.963 0 6.606c0 3.642 2.912 6.605 6.49 6.605 3.579 0 6.49-2.963 6.49-6.605C12.98 2.963 10.07 0 6.49 0zm0 11.992c-2.918 0-5.292-2.416-5.292-5.386S3.572 1.22 6.49 1.22c2.918 0 5.292 2.416 5.292 5.386s-2.374 5.386-5.292 5.386z"/><path d="M14.562 13.96l-3.435-3.497a.591.591 0 00-.847 0 .617.617 0 000 .862l3.435 3.496a.592.592 0 00.847 0 .617.617 0 000-.862z"/></symbol><symbol id="spoiler-dropdown" viewBox="0 0 16 9"><path d="M7.429.234L.236 7.429a.81.81 0 000 1.144.806.806 0 001.142 0L8 1.948l6.622 6.624a.807.807 0 101.142-1.144L8.57.233a.815.815 0 00-1.142 0z"/></symbol><symbol id="template-document" viewBox="0 0 100 100"><path id="canvas_background" d="M-1-1h802v602H-1z"/><path id="svg_2" d="M0 0h22v30H0z"/><g id="svg_3" clip-path="url(#clip0)"><path id="svg_4" d="M-221-368h1920v960H-221z"/><g id="svg_5" filter="url(#filter0_d)"><path id="svg_6" d="M-11-10h540v96H-11z"/></g><path id="svg_7" d="M0 1.875v26.25C0 29.156.835 30 1.855 30h18.04c1.02 0 1.855-.844 1.855-1.875V6.905c0-.575-.226-1.127-.63-1.534L16.437.636A2.137 2.137 0 0014.916 0H1.857A1.871 1.871 0 000 1.875z"/><path id="svg_8" d="M5.028 14.25h11.694a.518.518 0 00.528-.507v-1.236a.518.518 0 00-.528-.507H5.028a.518.518 0 00-.528.507v1.236c0 .28.236.507.528.507z"/><path id="svg_9" d="M5.028 18h11.694a.518.518 0 00.528-.507v-1.236a.518.518 0 00-.528-.507H5.028a.518.518 0 00-.528.507v1.236c0 .28.236.507.528.507z"/><path id="svg_10" d="M5.028 21.75h11.694a.518.518 0 00.528-.507v-1.236a.518.518 0 00-.528-.507H5.028a.518.518 0 00-.528.507v1.236c0 .28.236.507.528.507z"/><path id="svg_11" d="M4.886 25.5h5.978a.377.377 0 00.386-.367v-1.516a.377.377 0 00-.386-.367H4.886a.377.377 0 00-.386.367v1.516c0 .203.173.367.386.367z"/><path id="svg_12" d="M16.436.636a2.143 2.143 0 00-.991-.57V6.18l6.305 6.372V6.906c0-.576-.226-1.128-.629-1.535L16.436.636z"/><path id="svg_13" d="M21.686 6.379l.02.088H16.02a.733.733 0 01-.728-.737V.034l.139.028c.423.095.81.315 1.117.625l4.52 4.568c.305.309.52.698.617 1.124z"/></g></symbol><symbol id="tick" viewBox="0 0 16 13"><path d="M15.766.26a.747.747 0 00-1.132 0L5.05 10.862 1.366 6.787a.747.747 0 00-1.132 0 .953.953 0 000 1.252l4.25 4.702a.747.747 0 001.132 0l10.15-11.23a.953.953 0 000-1.252z"/><path d="M15.766.26a.747.747 0 00-1.132 0L5.05 10.862 1.366 6.787a.747.747 0 00-1.132 0 .953.953 0 000 1.252l4.25 4.702a.747.747 0 001.132 0l10.15-11.23a.953.953 0 000-1.252z"/></symbol><symbol id="trash" viewBox="0 0 14 15"><path d="M13.91 2.588a.313.313 0 00-.228-.088h-3.073L9.913.87a1.36 1.36 0 00-.536-.616A1.422 1.422 0 008.59 0H5.409a1.42 1.42 0 00-.785.254 1.36 1.36 0 00-.537.615L3.39 2.5H.318A.302.302 0 000 2.812v.626a.3.3 0 00.09.225.31.31 0 00.228.088h.955v9.297c0 .54.155 1 .467 1.382.312.38.686.571 1.124.571h8.272c.438 0 .813-.197 1.124-.59.312-.395.467-.862.467-1.402V3.75h.955c.093 0 .169-.03.229-.088A.302.302 0 0014 3.437v-.625a.302.302 0 00-.09-.224zm-8.65-1.23a.28.28 0 01.169-.108h3.152a.281.281 0 01.169.107L9.227 2.5H4.773l.487-1.143zm6.195 11.65a1.088 1.088 0 01-.214.659c-.05.056-.085.083-.105.083H2.864c-.02 0-.055-.027-.105-.083a1.092 1.092 0 01-.214-.659V3.75h8.91v9.258z"/><path d="M4.136 11.875h.637a.302.302 0 00.318-.313V5.938a.302.302 0 00-.318-.312h-.637a.302.302 0 00-.318.312v5.626a.301.301 0 00.318.312zm2.546 0h.636c.093 0 .17-.03.229-.088a.3.3 0 00.09-.224V5.937a.3.3 0 00-.09-.224.313.313 0 00-.229-.088h-.636a.301.301 0 00-.318.312v5.626a.301.301 0 00.318.312zm2.545 0h.637a.301.301 0 00.318-.313V5.938a.302.302 0 00-.318-.312h-.637a.302.302 0 00-.318.312v5.626a.302.302 0 00.318.312z"/></symbol><symbol id="vertical-menu" viewBox="0 0 24 24"><path fill-rule="evenodd" clip-rule="evenodd" d="M10 12a2 2 0 114 0 2 2 0 01-4 0zm0-7a2 2 0 114 0 2 2 0 01-4 0zm0 14a2 2 0 114 0 2 2 0 01-4 0z"/></symbol><symbol id="view" viewBox="0 0 15 10"><path d="M14.905 4.695C14.77 4.503 11.578 0 7.5 0S.229 4.503.095 4.695a.537.537 0 000 .61C.23 5.497 3.422 10 7.5 10s7.27-4.503 7.405-4.695a.536.536 0 000-.61zM7.5 8.965C4.496 8.966 1.895 5.978 1.124 5c.77-.978 3.366-3.966 6.376-3.966 3.004 0 5.605 2.989 6.376 3.966-.77.978-3.366 3.966-6.376 3.966z"/><path d="M7.5 1.897C5.862 1.897 4.531 3.289 4.531 5c0 1.711 1.331 3.103 2.967 3.103 1.636 0 2.967-1.392 2.967-3.103 0-1.711-1.33-3.103-2.967-3.103zm0 5.172c-1.092 0-1.98-.928-1.98-2.069 0-1.14.888-2.069 1.978-2.069 1.091 0 1.978.928 1.978 2.069 0 1.14-.887 2.069-1.978 2.069z"/></symbol></svg>