<svg width="693" height="195" viewBox="0 0 693 195" fill="none" xmlns="http://www.w3.org/2000/svg">
<path fill-rule="evenodd" clip-rule="evenodd" d="M53.5788 76.4098C69.9205 74.3151 83.3291 87.302 84.5861 102.383C85.8432 119.979 74.9487 132.965 59.864 134.641C42.6843 136.317 28.4377 123.749 27.5996 108.667C26.7616 90.6534 37.6561 78.5044 53.5788 76.4098ZM85.4242 6.44837C85.4242 21.9488 86.2622 43.7332 85.4242 58.3958C82.491 58.3958 74.9487 50.0172 54.4168 50.0172C18.8002 50.0172 -9.27397 84.7884 2.87756 122.911C7.90578 138.83 20.0573 151.398 33.8849 157.263C41.8463 160.615 51.4837 161.453 61.9591 160.615C66.1493 160.196 71.5966 158.52 74.9487 157.263C78.7199 155.588 82.91 152.655 85.4242 151.817C86.2622 157.263 85.8432 158.52 92.1284 158.52C115.593 158.52 111.822 163.547 111.822 127.938V13.1513C111.822 -0.673447 113.079 1.00228 94.2235 1.00228C89.1953 1.00228 85.8432 0.583345 85.4242 6.44837Z" fill="#0099FE"/>
<path fill-rule="evenodd" clip-rule="evenodd" d="M53.5788 76.4098C69.9205 74.3151 83.3291 87.302 84.5861 102.383C85.8432 119.979 74.9487 132.965 59.864 134.641C42.6843 136.317 28.4377 123.749 27.5996 108.667C26.7616 90.6534 37.6561 78.5044 53.5788 76.4098ZM85.4242 6.44837C85.4242 21.9488 86.2622 43.7332 85.4242 58.3958C82.491 58.3958 74.9487 50.0172 54.4168 50.0172C18.8002 50.0172 -9.27397 84.7884 2.87756 122.911C7.90578 138.83 20.0573 151.398 33.8849 157.263C41.8463 160.615 51.4837 161.453 61.9591 160.615C66.1493 160.196 71.5966 158.52 74.9487 157.263C78.7199 155.588 82.91 152.655 85.4242 151.817C86.2622 157.263 85.8432 158.52 92.1284 158.52C115.593 158.52 111.822 163.547 111.822 127.938V13.1513C111.822 -0.673447 113.079 1.00228 94.2235 1.00228C89.1953 1.00228 85.8432 0.583345 85.4242 6.44837Z" fill="white"/>
<path fill-rule="evenodd" clip-rule="evenodd" d="M151.21 132.128C150.791 94.0049 151.21 54.2064 151.21 15.6648C151.21 -1.93027 153.305 1.42117 131.516 1.00224C123.974 1.00224 125.231 3.93476 125.231 11.0566V145.952C124.812 161.034 123.555 158.52 146.182 158.52H229.985C237.108 158.52 236.689 155.169 236.689 148.466C236.689 129.614 237.947 132.128 219.091 132.128C196.464 132.128 173.837 132.128 151.21 132.128Z" fill="#0099FE"/>
<path fill-rule="evenodd" clip-rule="evenodd" d="M151.21 132.128C150.791 94.0049 151.21 54.2064 151.21 15.6648C151.21 -1.93027 153.305 1.42117 131.516 1.00224C123.974 1.00224 125.231 3.93476 125.231 11.0566V145.952C124.812 161.034 123.555 158.52 146.182 158.52H229.985C237.108 158.52 236.689 155.169 236.689 148.466C236.689 129.614 237.947 132.128 219.091 132.128C196.464 132.128 173.837 132.128 151.21 132.128Z" fill="white"/>
<path fill-rule="evenodd" clip-rule="evenodd" d="M164.619 7.28566V104.897C164.619 114.951 163.362 119.14 171.742 119.14H230.404C238.366 119.14 236.69 114.532 236.69 101.964C236.69 91.0718 235.852 92.7475 217.834 92.7475L190.598 93.1665V10.6371C190.598 -0.255088 191.436 1.0017 171.742 1.0017C165.876 1.0017 164.2 1.42063 164.619 7.28566Z" fill="#0099FE"/>
<path fill-rule="evenodd" clip-rule="evenodd" d="M164.619 7.28566V104.897C164.619 114.951 163.362 119.14 171.742 119.14H230.404C238.366 119.14 236.69 114.532 236.69 101.964C236.69 91.0718 235.852 92.7475 217.834 92.7475L190.598 93.1665V10.6371C190.598 -0.255088 191.436 1.0017 171.742 1.0017C165.876 1.0017 164.2 1.42063 164.619 7.28566Z" fill="white"/>
<path d="M257.85 119V99.5H253.65V95.75H257.85V94.75C257.85 91.35 258.817 88.85 260.75 87.25C262.717 85.6167 265.317 84.8 268.55 84.8C271.65 84.8 274.417 85.65 276.85 87.35L274.8 90.7C272.9 89.3333 270.817 88.65 268.55 88.65C266.483 88.65 264.933 89.0833 263.9 89.95C262.867 90.7833 262.35 92.2 262.35 94.2V95.75H276.9V119H272.4V99.5H262.35V119H257.85ZM283.297 119V100.8C283.297 98.5333 283.281 96.85 283.247 95.75H287.547L287.697 99.25C289.664 96.55 292.264 95.2 295.497 95.2C298.464 95.2 300.697 96.0667 302.197 97.8C303.697 99.5333 304.447 101.95 304.447 105.05V119H299.947V105.4C299.947 101.2 298.164 99.1 294.597 99.1C292.231 99.1 290.497 99.9833 289.397 101.75C288.331 103.483 287.797 105.633 287.797 108.2V119H283.297ZM324.995 110.65V108C324.028 107.733 322.245 107.6 319.645 107.6C317.411 107.6 315.828 108.067 314.895 109C313.995 109.9 313.545 110.983 313.545 112.25C313.545 113.517 313.978 114.483 314.845 115.15C315.711 115.783 316.911 116.1 318.445 116.1C320.145 116.1 321.661 115.55 322.995 114.45C324.328 113.35 324.995 112.083 324.995 110.65ZM325.145 119L325.045 116.2C323.345 118.5 320.745 119.65 317.245 119.65C315.045 119.65 313.145 119.067 311.545 117.9C309.945 116.7 309.145 114.867 309.145 112.4C309.145 109.867 310.028 107.867 311.795 106.4C313.595 104.9 316.111 104.15 319.345 104.15C321.711 104.15 323.595 104.267 324.995 104.5V103.65C324.995 100.417 323.045 98.8 319.145 98.8C316.678 98.8 314.411 99.5333 312.345 101L310.245 97.95C312.545 96.0167 315.678 95.05 319.645 95.05C322.678 95.05 325.045 95.7833 326.745 97.25C328.445 98.6833 329.295 100.733 329.295 103.4V114.4C329.295 116.7 329.311 118.233 329.345 119H325.145ZM335.446 119V100.8C335.446 98.5333 335.429 96.85 335.396 95.75H339.696L339.846 99.25C341.812 96.55 344.412 95.2 347.646 95.2C350.612 95.2 352.846 96.0667 354.346 97.8C355.846 99.5333 356.596 101.95 356.596 105.05V119H352.096V105.4C352.096 101.2 350.312 99.1 346.746 99.1C344.379 99.1 342.646 99.9833 341.546 101.75C340.479 103.483 339.946 105.633 339.946 108.2V119H335.446ZM380.093 112.9L382.843 115.8C380.576 118.4 377.543 119.7 373.743 119.7C370.043 119.7 367.076 118.55 364.843 116.25C362.643 113.95 361.543 110.983 361.543 107.35C361.543 103.883 362.693 100.967 364.993 98.6C367.293 96.2 370.21 95 373.743 95C377.443 95 380.46 96.3 382.793 98.9L379.843 101.75C378.343 99.8833 376.31 98.95 373.743 98.95C371.443 98.95 369.593 99.7667 368.193 101.4C366.793 103.033 366.093 105.017 366.093 107.35C366.093 109.617 366.793 111.583 368.193 113.25C369.593 114.917 371.443 115.75 373.743 115.75C376.443 115.75 378.56 114.8 380.093 112.9ZM387.201 91.6V86.55H392.251V91.6H387.201ZM387.501 119V95.75H392.001V119H387.501ZM412.885 110.65V108C411.918 107.733 410.135 107.6 407.535 107.6C405.302 107.6 403.718 108.067 402.785 109C401.885 109.9 401.435 110.983 401.435 112.25C401.435 113.517 401.868 114.483 402.735 115.15C403.602 115.783 404.802 116.1 406.335 116.1C408.035 116.1 409.552 115.55 410.885 114.45C412.218 113.35 412.885 112.083 412.885 110.65ZM413.035 119L412.935 116.2C411.235 118.5 408.635 119.65 405.135 119.65C402.935 119.65 401.035 119.067 399.435 117.9C397.835 116.7 397.035 114.867 397.035 112.4C397.035 109.867 397.918 107.867 399.685 106.4C401.485 104.9 404.002 104.15 407.235 104.15C409.602 104.15 411.485 104.267 412.885 104.5V103.65C412.885 100.417 410.935 98.8 407.035 98.8C404.568 98.8 402.302 99.5333 400.235 101L398.135 97.95C400.435 96.0167 403.568 95.05 407.535 95.05C410.568 95.05 412.935 95.7833 414.635 97.25C416.335 98.6833 417.185 100.733 417.185 103.4V114.4C417.185 116.7 417.202 118.233 417.235 119H413.035ZM423.336 119V85.65H427.836V119H423.336ZM441.813 116.15L444.563 113.15C446.396 114.983 448.746 115.9 451.613 115.9C453.18 115.9 454.446 115.65 455.413 115.15C456.38 114.65 456.863 113.9 456.863 112.9C456.863 111.833 456.413 111.05 455.513 110.55C454.646 110.05 452.88 109.483 450.213 108.85C445.28 107.75 442.813 105.433 442.813 101.9C442.813 99.7667 443.713 98.0833 445.513 96.85C447.346 95.6167 449.496 95 451.963 95C455.53 95 458.463 95.9833 460.763 97.95L458.313 101.05C456.646 99.55 454.546 98.8 452.013 98.8C448.846 98.8 447.263 99.8 447.263 101.8C447.263 102.733 447.763 103.45 448.763 103.95C449.763 104.417 451.346 104.9 453.513 105.4C456.046 106 457.996 106.833 459.363 107.9C460.73 108.933 461.413 110.5 461.413 112.6C461.413 114.833 460.463 116.583 458.563 117.85C456.696 119.083 454.413 119.7 451.713 119.7C447.313 119.7 444.013 118.517 441.813 116.15ZM477.847 119.7C474.314 119.7 471.38 118.5 469.047 116.1C466.714 113.7 465.547 110.783 465.547 107.35C465.547 103.917 466.714 101 469.047 98.6C471.38 96.2 474.314 95 477.847 95C481.347 95 484.264 96.2167 486.597 98.65C488.964 101.05 490.147 103.95 490.147 107.35C490.147 110.75 488.964 113.667 486.597 116.1C484.264 118.5 481.347 119.7 477.847 119.7ZM477.847 115.8C480.18 115.8 482.047 114.967 483.447 113.3C484.88 111.6 485.597 109.617 485.597 107.35C485.597 105.117 484.88 103.15 483.447 101.45C482.014 99.75 480.147 98.9 477.847 98.9C475.514 98.9 473.63 99.75 472.197 101.45C470.797 103.117 470.097 105.083 470.097 107.35C470.097 109.583 470.814 111.55 472.247 113.25C473.68 114.95 475.547 115.8 477.847 115.8ZM495.26 119V85.65H499.76V119H495.26ZM505.804 109.7V95.75H510.304V109.4C510.304 113.567 512.054 115.65 515.554 115.65C517.92 115.65 519.637 114.783 520.704 113.05C521.77 111.283 522.304 109.117 522.304 106.55V95.75H526.804V113.95C526.804 116.217 526.82 117.9 526.854 119H522.554L522.404 115.55C520.437 118.183 517.854 119.5 514.654 119.5C511.687 119.5 509.47 118.65 508.004 116.95C506.537 115.217 505.804 112.8 505.804 109.7ZM535.053 111.4V99.5H530.853V95.75H535.053V88.15H539.553V95.75H546.353V99.5H539.553V110.95C539.553 112.75 539.82 114.017 540.353 114.75C540.92 115.483 541.77 115.85 542.903 115.85C544.303 115.85 545.586 115.317 546.753 114.25L548.803 117C546.936 118.767 544.736 119.65 542.203 119.65C539.736 119.65 537.92 118.983 536.753 117.65C535.62 116.317 535.053 114.233 535.053 111.4ZM552.143 91.6V86.55H557.193V91.6H552.143ZM552.443 119V95.75H556.943V119H552.443ZM574.527 119.7C570.993 119.7 568.06 118.5 565.727 116.1C563.393 113.7 562.227 110.783 562.227 107.35C562.227 103.917 563.393 101 565.727 98.6C568.06 96.2 570.993 95 574.527 95C578.027 95 580.943 96.2167 583.277 98.65C585.643 101.05 586.827 103.95 586.827 107.35C586.827 110.75 585.643 113.667 583.277 116.1C580.943 118.5 578.027 119.7 574.527 119.7ZM574.527 115.8C576.86 115.8 578.727 114.967 580.127 113.3C581.56 111.6 582.277 109.617 582.277 107.35C582.277 105.117 581.56 103.15 580.127 101.45C578.693 99.75 576.827 98.9 574.527 98.9C572.193 98.9 570.31 99.75 568.877 101.45C567.477 103.117 566.777 105.083 566.777 107.35C566.777 109.583 567.493 111.55 568.927 113.25C570.36 114.95 572.227 115.8 574.527 115.8ZM591.94 119V100.8C591.94 98.5333 591.923 96.85 591.89 95.75H596.19L596.34 99.25C598.307 96.55 600.907 95.2 604.14 95.2C607.107 95.2 609.34 96.0667 610.84 97.8C612.34 99.5333 613.09 101.95 613.09 105.05V119H608.59V105.4C608.59 101.2 606.807 99.1 603.24 99.1C600.873 99.1 599.14 99.9833 598.04 101.75C596.973 103.483 596.44 105.633 596.44 108.2V119H591.94ZM617.887 116.15L620.637 113.15C622.47 114.983 624.82 115.9 627.687 115.9C629.254 115.9 630.52 115.65 631.487 115.15C632.454 114.65 632.937 113.9 632.937 112.9C632.937 111.833 632.487 111.05 631.587 110.55C630.72 110.05 628.954 109.483 626.287 108.85C621.354 107.75 618.887 105.433 618.887 101.9C618.887 99.7667 619.787 98.0833 621.587 96.85C623.42 95.6167 625.57 95 628.037 95C631.604 95 634.537 95.9833 636.837 97.95L634.387 101.05C632.72 99.55 630.62 98.8 628.087 98.8C624.92 98.8 623.337 99.8 623.337 101.8C623.337 102.733 623.837 103.45 624.837 103.95C625.837 104.417 627.42 104.9 629.587 105.4C632.12 106 634.07 106.833 635.437 107.9C636.804 108.933 637.487 110.5 637.487 112.6C637.487 114.833 636.537 116.583 634.637 117.85C632.77 119.083 630.487 119.7 627.787 119.7C623.387 119.7 620.087 118.517 617.887 116.15ZM256.1 169V140.8C256.1 138.533 256.083 136.85 256.05 135.75H260.35L260.5 139.05C262.5 136.517 265.133 135.25 268.4 135.25C271.8 135.25 274.4 136.417 276.2 138.75C278 141.083 278.9 144 278.9 147.5C278.9 149.5 278.533 151.317 277.8 152.95C277.1 154.55 276.167 155.833 275 156.8C273.833 157.733 272.567 158.45 271.2 158.95C269.833 159.45 268.433 159.7 267 159.7C264.9 159.7 262.75 159.2 260.55 158.2V169H256.1ZM260.55 148V153.95C262.083 155.183 264.1 155.8 266.6 155.8C268.867 155.8 270.717 155.017 272.15 153.45C273.583 151.883 274.3 149.9 274.3 147.5C274.3 145.033 273.733 143.033 272.6 141.5C271.5 139.933 269.767 139.15 267.4 139.15C264.033 139.15 261.867 140.883 260.9 144.35C260.667 145.05 260.55 146.267 260.55 148ZM298.481 150.65V148C297.514 147.733 295.731 147.6 293.131 147.6C290.898 147.6 289.314 148.067 288.381 149C287.481 149.9 287.031 150.983 287.031 152.25C287.031 153.517 287.464 154.483 288.331 155.15C289.198 155.783 290.398 156.1 291.931 156.1C293.631 156.1 295.148 155.55 296.481 154.45C297.814 153.35 298.481 152.083 298.481 150.65ZM298.631 159L298.531 156.2C296.831 158.5 294.231 159.65 290.731 159.65C288.531 159.65 286.631 159.067 285.031 157.9C283.431 156.7 282.631 154.867 282.631 152.4C282.631 149.867 283.514 147.867 285.281 146.4C287.081 144.9 289.598 144.15 292.831 144.15C295.198 144.15 297.081 144.267 298.481 144.5V143.65C298.481 140.417 296.531 138.8 292.631 138.8C290.164 138.8 287.898 139.533 285.831 141L283.731 137.95C286.031 136.017 289.164 135.05 293.131 135.05C296.164 135.05 298.531 135.783 300.231 137.25C301.931 138.683 302.781 140.733 302.781 143.4V154.4C302.781 156.7 302.798 158.233 302.831 159H298.631ZM308.932 159V140.5C308.932 138.367 308.915 136.783 308.882 135.75H313.182L313.332 139.5C315.199 136.767 317.732 135.4 320.932 135.4C321.832 135.4 322.682 135.533 323.482 135.8L322.482 140C321.915 139.767 321.149 139.65 320.182 139.65C318.282 139.65 316.682 140.35 315.382 141.75C314.082 143.117 313.432 144.783 313.432 146.75V159H308.932ZM329.145 151.4V139.5H324.945V135.75H329.145V128.15H333.645V135.75H340.445V139.5H333.645V150.95C333.645 152.75 333.912 154.017 334.445 154.75C335.012 155.483 335.862 155.85 336.995 155.85C338.395 155.85 339.678 155.317 340.845 154.25L342.895 157C341.028 158.767 338.828 159.65 336.295 159.65C333.828 159.65 332.012 158.983 330.845 157.65C329.712 156.317 329.145 154.233 329.145 151.4ZM346.334 159V140.8C346.334 138.533 346.318 136.85 346.284 135.75H350.584L350.734 139.25C352.701 136.55 355.301 135.2 358.534 135.2C361.501 135.2 363.734 136.067 365.234 137.8C366.734 139.533 367.484 141.95 367.484 145.05V159H362.984V145.4C362.984 141.2 361.201 139.1 357.634 139.1C355.268 139.1 353.534 139.983 352.434 141.75C351.368 143.483 350.834 145.633 350.834 148.2V159H346.334ZM392.182 152.9L394.732 155.6C394.232 156.167 393.632 156.717 392.932 157.25C392.232 157.783 391.098 158.333 389.532 158.9C387.998 159.433 386.332 159.7 384.532 159.7C380.898 159.7 377.965 158.55 375.732 156.25C373.498 153.95 372.382 150.933 372.382 147.2C372.382 143.767 373.465 140.883 375.632 138.55C377.832 136.217 380.615 135.05 383.982 135.05C386.515 135.05 388.665 135.717 390.432 137.05C392.198 138.383 393.448 140.05 394.182 142.05C394.948 144.017 395.332 146.233 395.332 148.7H376.982C377.048 150.733 377.815 152.433 379.282 153.8C380.782 155.167 382.548 155.85 384.582 155.85C387.848 155.85 390.382 154.867 392.182 152.9ZM376.982 145.35H390.682C390.548 143.45 389.898 141.9 388.732 140.7C387.565 139.467 385.982 138.85 383.982 138.85C381.948 138.85 380.282 139.5 378.982 140.8C377.715 142.067 377.048 143.583 376.982 145.35ZM400.338 159V140.5C400.338 138.367 400.322 136.783 400.288 135.75H404.588L404.738 139.5C406.605 136.767 409.138 135.4 412.338 135.4C413.238 135.4 414.088 135.533 414.888 135.8L413.888 140C413.322 139.767 412.555 139.65 411.588 139.65C409.688 139.65 408.088 140.35 406.788 141.75C405.488 143.117 404.838 144.783 404.838 146.75V159H400.338Z" fill="white"/>
</svg>
