<svg width="32" height="32" viewBox="0 0 32 32" fill="none" xmlns="http://www.w3.org/2000/svg">
<mask id="mask0" style="mask-type:alpha" maskUnits="userSpaceOnUse" x="0" y="0" width="32" height="32">
<circle cx="16" cy="16" r="16" fill="#C4C4C4"/>
</mask>
<g mask="url(#mask0)">
<circle cx="16" cy="16" r="16" fill="#E9F1FE"/>
<path d="M16.0001 18.2661C18.9938 18.2661 21.421 15.3233 21.421 11.6931C21.421 8.06282 20.6241 5.12 16.0001 5.12C11.3761 5.12 10.5791 8.06282 10.5791 11.6931C10.5791 15.3233 13.0062 18.2661 16.0001 18.2661Z" fill="#ABC3EB"/>
<path d="M5.76108 28.3023C5.75923 28.24 5.76015 28.081 5.76108 28.3023V28.3023Z" fill="#ABC3EB"/>
<path d="M26.2385 28.4752C26.2395 28.0548 26.2414 28.4146 26.2385 28.4752V28.4752Z" fill="#ABC3EB"/>
<path d="M26.2271 28.0369C26.1267 21.713 25.2994 19.9111 18.9684 18.7704C18.9684 18.7704 18.0772 19.9041 16.0001 19.9041C13.9229 19.9041 13.0316 18.7704 13.0316 18.7704C6.76969 19.8986 5.89204 21.6738 5.77665 27.8314C5.76718 28.3342 5.76277 28.3607 5.76108 28.3023C5.76146 28.4117 5.76195 28.614 5.76195 28.9667C5.76195 28.9667 7.26921 32 16.0001 32C24.7308 32 26.2382 28.9667 26.2382 28.9667C26.2382 28.7401 26.2382 28.5824 26.2385 28.4752C26.2368 28.5113 26.2335 28.4414 26.2271 28.0369Z" fill="#ABC3EB"/>
</g>
</svg>
